<svg width="264" height="50" viewBox="0 0 264 50" fill="none" xmlns="http://www.w3.org/2000/svg">
<path fill-rule="evenodd" clip-rule="evenodd" d="M24.505 21.8251C26.1043 20.2321 26.9039 18.262 26.9039 15.9148C26.9039 12.0065 24.5103 8.28931 19.7231 4.7633C20.7965 2.52237 22.5997 1.13108 25.1329 0.589438L25.2617 0.4142V0.127446L25.1329 0C22.2777 0.191169 19.9217 1.48156 18.0648 3.87118C14.8554 2.41617 11.8553 1.68866 9.06458 1.68866C7.96975 1.68866 6.88565 1.83204 5.81228 2.11879C4.13783 2.59671 2.78539 3.35608 1.75496 4.39689C0.584985 5.57577 0 6.97768 0 8.60261C0 11.2577 1.46515 13.5093 4.39544 15.3573C6.5207 16.7061 9.18802 17.7203 12.3974 18.4C11.5816 20.0037 11.0127 20.9702 10.6907 21.2994C9.16656 20.864 7.70141 20.6463 6.2953 20.6463C5.13606 20.6463 3.89632 20.8428 2.57608 21.2357C0.944563 21.7136 0.128804 22.3243 0.128804 23.0677V23.2589C1.44905 23.9068 3.16643 24.2307 5.28097 24.2307C7.87851 24.2307 9.94475 23.6041 11.4797 22.3509C14.2919 23.6041 16.6426 24.2307 18.5317 24.2307C20.8824 24.2307 22.8735 23.4288 24.505 21.8251ZM23.4745 9.62218C24.5372 11.3427 25.0685 13.1482 25.0685 15.0386C25.0685 17.3858 24.3225 19.2762 22.8305 20.71C21.3493 22.1438 19.4118 22.8606 17.0182 22.8606C15.5048 22.8606 13.8679 22.4942 12.1076 21.7614C13.0092 20.6675 13.7767 19.6108 14.41 18.5912H14.5066C14.5924 18.6337 14.9896 18.6549 15.698 18.6549C17.2758 18.6549 18.5531 18.331 19.5299 17.6831C20.6677 16.9185 21.2366 15.798 21.2366 14.3218C21.2366 12.5163 20.1793 10.8595 18.0648 9.35136C18.4404 7.96007 18.902 6.69092 19.4494 5.54391C21.1239 6.64844 22.4656 8.00786 23.4745 9.62218ZM17.7428 10.116C19.5675 11.3268 20.4798 12.7287 20.4798 14.3218C20.4798 15.5113 20.0183 16.4459 19.0952 17.1256C18.2794 17.6885 17.2329 17.9699 15.9556 17.9699C15.8268 17.9699 15.6443 17.9593 15.4082 17.938C15.1398 17.9168 14.9413 17.9062 14.8125 17.9062C15.8214 16.1857 16.7982 13.5889 17.7428 10.116ZM9.75691 2.58078C12.333 2.58078 14.952 3.23926 17.614 4.5562C16.9485 5.905 16.444 7.11574 16.1005 8.18841C14.0718 7.27505 12.1237 6.81837 10.256 6.81837C9.60127 6.81837 8.76404 6.88209 7.74434 7.00954C6.49924 7.15822 5.80692 7.41843 5.66738 7.79014L5.60298 7.98131L5.66738 8.31586L5.94109 8.34772C7.21839 7.82732 8.58157 7.56711 10.0306 7.56711C11.9412 7.56711 13.8733 8.00255 15.8268 8.87344L15.5692 9.78149C14.5817 13.1801 13.6157 15.8246 12.6711 17.715C9.96621 17.1203 7.71214 16.2388 5.90889 15.0705C3.44014 13.4774 2.20577 11.5498 2.20577 9.28764C2.20577 8.22559 2.40434 7.26974 2.80149 6.4201C3.40257 5.15626 4.35787 4.18979 5.66738 3.5207C6.85882 2.89409 8.22199 2.58078 9.75691 2.58078ZM7.13252 21.4587C8.07709 21.4587 9.04312 21.6021 10.0306 21.8889C8.73184 23.0146 7.01445 23.5775 4.87845 23.5775C4.04123 23.5775 3.29524 23.4501 2.64048 23.1952C3.71385 22.0376 5.2112 21.4587 7.13252 21.4587Z" fill="#EAE3E1"/>
<path fill-rule="evenodd" clip-rule="evenodd" d="M45.2255 16.9784C45.0768 17.2052 44.9107 17.4507 44.7272 17.715L43.5036 19.4674C41.9687 21.6446 40.6055 22.7332 39.414 22.7332C38.931 22.7332 38.4909 22.5367 38.0938 22.1438C36.5803 23.6731 35.0293 24.4378 33.4408 24.4378C32.1527 24.4378 31.1223 24.0448 30.3495 23.2589C29.5766 22.4942 29.1902 21.4694 29.1902 20.1843C29.1902 18.3363 29.9791 16.5733 31.557 14.8953C33.1456 13.2066 34.863 12.3623 36.7092 12.3623C37.8791 12.3623 38.813 12.7977 39.5106 13.6686C40.1547 14.497 40.4767 15.4953 40.4767 16.6636C40.4767 17.9699 40.0473 19.3187 39.1886 20.71C39.296 21.1879 39.5804 21.4269 40.042 21.4269C40.8792 21.4269 41.8774 20.6569 43.0367 19.1169C43.6566 18.2068 44.5792 16.8681 45.8044 15.1009L46.3051 13.4774C46.3909 13.1907 46.5519 13.0048 46.7881 12.9199L48.1727 12.649H48.3015C48.5055 12.649 48.6074 12.7393 48.6074 12.9199C48.6074 13.0261 48.5967 13.0898 48.5752 13.111L46.4661 19.8975C47.6038 17.8796 48.5162 16.414 49.2031 15.5006C50.6951 13.5146 52.0261 12.5216 53.1961 12.5216C54.3768 12.5216 54.9671 13.042 54.9671 14.0828C54.9671 14.8687 54.4626 16.8388 53.4537 19.9931C56.4913 15.0546 58.8634 12.5853 60.5701 12.5853C61.7186 12.5853 62.2929 13.2172 62.2929 14.4811C62.2929 14.7253 62.0835 15.5325 61.6649 16.9025C61.4395 17.5292 61.1336 18.4531 60.7472 19.6745C60.3286 20.8852 60.1193 21.7083 60.1193 22.1438C60.1193 22.6429 60.3608 22.8925 60.8438 22.8925C61.7669 22.8925 62.91 22.0163 64.2732 20.2639C64.7426 19.5766 65.356 18.6908 66.1136 17.6064C66.4861 16.6951 67.0587 15.7968 67.8314 14.9112C69.3019 13.2119 70.8637 12.3623 72.5167 12.3623C73.2573 12.3623 73.8906 12.5588 74.4165 12.9517C74.9962 13.4084 75.286 13.9925 75.286 14.7041C75.286 16.0529 74.3414 17.3274 72.4523 18.5275C71.1106 19.3771 69.5703 20.0621 67.8314 20.5826C67.8314 21.4109 68.0515 22.096 68.4916 22.6376C68.9102 23.1793 69.522 23.4501 70.327 23.4501C71.9585 23.4501 73.7725 22.4518 75.769 20.4551C77.0814 19.1468 78.3805 17.4759 79.6661 15.4425L80.1966 13.7323C80.3576 13.2332 80.6152 12.9411 80.9694 12.8561L82.1448 12.5534H82.3541C82.5473 12.5534 82.6439 12.6437 82.6439 12.8243C82.6439 12.9305 82.6332 13.0048 82.6117 13.0473L80.3093 20.2639C83.6904 15.1024 86.1967 12.5216 87.8283 12.5216C88.3542 12.5216 88.805 12.6968 89.1807 13.0473C89.5242 13.419 89.6959 13.8651 89.6959 14.3855C89.6959 14.5554 89.5779 15.044 89.3417 15.8511L88.585 18.4638L87.4258 22.2393C87.4258 22.6111 87.6458 22.7969 88.0859 22.7969C88.6547 22.7969 89.3363 22.3933 90.1306 21.5862C90.9035 20.8109 91.7836 19.7595 92.7711 18.4319C93.5525 17.323 94.329 16.2287 95.1006 15.149L95.6692 13.3978C95.7765 13.0792 95.9966 12.888 96.3293 12.8243L97.5691 12.5853H97.714C97.8642 12.5853 97.9394 12.665 97.9394 12.8243C97.9394 12.9305 97.9286 12.9942 97.9072 13.0154L95.6048 20.0568C95.2506 21.1295 95.0735 21.857 95.0735 22.2393C95.0735 22.8766 95.3579 23.1952 95.9268 23.1952C97.0538 23.1952 98.6907 21.7349 100.837 18.8142C101.039 18.5408 101.249 18.2541 101.467 17.954C101.82 16.9991 102.404 16.0698 103.22 15.1661C104.884 13.2969 106.596 12.3623 108.356 12.3623C109.108 12.3623 109.746 12.5375 110.272 12.888C110.841 13.3022 111.126 13.8651 111.126 14.5767C111.126 15.1395 110.916 15.6175 110.498 16.0104C110.058 16.4034 109.553 16.5999 108.984 16.5999C108.523 16.5999 108.179 16.4459 107.954 16.1379C108.791 15.6599 109.21 15.0652 109.21 14.3536C109.21 13.5252 108.85 13.111 108.131 13.111C107.315 13.111 106.478 13.6527 105.619 14.736C104.986 15.5644 104.482 16.4777 104.106 17.476C103.687 18.5912 103.478 19.6055 103.478 20.5188C103.478 22.4305 104.369 23.3864 106.151 23.3864C108.102 23.3864 110.329 21.9209 112.834 18.9901C113.274 17.4445 114.315 15.9415 115.956 14.4811C117.448 13.1535 119.106 12.4897 120.931 12.4897C121.983 12.4897 122.97 12.6968 123.893 13.111L124.054 13.3341V13.3978C124.054 13.5783 123.958 13.9819 123.765 14.6085C123.679 14.8953 123.604 15.1661 123.539 15.421L123.33 16.0741L121.816 21.2357C121.688 21.6924 121.623 22.0854 121.623 22.4146C121.623 22.85 121.822 23.0677 122.219 23.0677C122.702 23.0677 123.459 22.5314 124.489 21.4587C125.412 20.5029 127.049 18.3522 129.4 15.0068C129.464 15.1555 129.496 15.3042 129.496 15.4528C129.496 15.9626 128.455 17.5982 126.373 20.3595C125.053 22.1013 123.829 23.2536 122.702 23.8165C122.155 24.0926 121.704 24.2307 121.35 24.2307C120.233 24.2307 119.675 23.689 119.675 22.6058C119.675 22.0429 119.992 20.8056 120.625 18.8939C118.564 22.4518 116.809 24.2307 115.36 24.2307C114.416 24.2307 113.702 23.8643 113.219 23.1315C112.8 22.5155 112.591 21.7083 112.591 20.71C112.591 20.5655 112.596 20.4213 112.606 20.2775C111.981 20.9157 111.3 21.5272 110.562 22.1119C108.673 23.62 106.891 24.3741 105.217 24.3741C103.993 24.3741 102.995 23.9811 102.222 23.1952C101.449 22.4093 101.063 21.4056 101.063 20.1843C101.063 19.9705 101.074 19.7578 101.095 19.5463C99.5198 21.5907 98.1298 22.9451 96.925 23.6094C96.2596 23.9811 95.6209 24.167 95.0091 24.167C94.3865 24.167 93.8981 23.9864 93.5439 23.6253C93.2005 23.2536 93.0287 22.7598 93.0287 22.1438C93.0287 21.7296 93.1951 21.0127 93.5278 19.9931L94.4739 17.0794C94.0735 17.6759 93.5274 18.4082 92.8355 19.2762C90.2165 22.558 88.3274 24.1988 87.1681 24.1988C86.5671 24.1988 86.0948 24.0024 85.7513 23.6094C85.3756 23.2271 85.1878 22.7385 85.1878 22.1438C85.1878 21.9951 85.3756 21.2888 85.7513 20.025C86.0518 19.0479 86.5241 17.5823 87.1681 15.6281L87.2969 15.1661C87.4258 14.7519 87.4902 14.4917 87.4902 14.3855C87.4902 14.0562 87.3023 13.8916 86.9266 13.8916C86.2934 13.8916 85.1073 14.9909 83.3684 17.1893C81.7476 19.2391 80.5616 21.0552 79.8102 22.6376C79.7029 22.9031 79.5794 23.1633 79.4399 23.4182C79.2896 23.705 79.0803 23.8696 78.812 23.9121L77.6044 24.1351H77.4273C77.2341 24.1351 77.1375 24.0395 77.1375 23.8484C77.1375 23.689 77.159 23.5351 77.2019 23.3864L78.9039 17.8998C78.8432 17.9853 78.7804 18.0724 78.7154 18.1611C76.9336 20.625 75.0069 22.388 72.9353 23.4501C71.7546 24.0661 70.6115 24.3741 69.5059 24.3741C68.2822 24.3741 67.327 23.9811 66.64 23.1952C65.9423 22.4305 65.5935 21.4269 65.5935 20.1843C65.5935 19.9366 65.6075 19.6898 65.6356 19.4439C65.2079 20.0344 64.786 20.621 64.3698 21.2038C63.4682 22.3509 62.588 23.1899 61.7293 23.7209C61.1819 24.0608 60.5218 24.2307 59.749 24.2307C59.2445 24.2307 58.8151 24.0501 58.4609 23.689C58.1175 23.3386 57.9457 22.9138 57.9457 22.4146C57.9457 21.7136 58.2624 20.4286 58.8956 18.5593C58.9386 18.4319 59.0352 18.1823 59.1855 17.8106L59.6524 16.5361C60.0495 15.4104 60.2481 14.7147 60.2481 14.4492C60.2481 14.0138 60.0281 13.796 59.588 13.796C58.5575 13.796 56.7865 15.8724 54.2748 20.025C53.9206 20.641 53.3624 21.7614 52.6004 23.3864C52.4608 23.6944 52.2193 23.8908 51.8758 23.9758L50.62 24.167C50.3946 24.167 50.2819 24.1139 50.2819 24.0077C50.2819 23.8377 50.3033 23.6731 50.3463 23.5138L52.6004 15.5325C52.6004 15.3519 52.6433 15.1342 52.7292 14.8793C52.7936 14.6138 52.8258 14.4386 52.8258 14.3536C52.8258 13.9394 52.6379 13.7323 52.2622 13.7323C51.2962 13.7323 49.6593 15.7024 47.3516 19.6426C47.3087 19.7276 47.0564 20.248 46.5949 21.2038L46.0635 22.3509C45.8918 22.7863 45.6181 23.2642 45.2424 23.7846C45.1136 23.8484 45.017 23.8908 44.9526 23.9121L43.3909 24.167C43.2406 24.167 43.1655 24.082 43.1655 23.9121C43.1655 23.7634 43.1869 23.6094 43.2299 23.4501L45.2255 16.9784ZM36.5159 13.0792C37.7074 13.0792 38.4534 13.8598 38.7539 15.421C37.6806 16.8441 37.1439 18.2513 37.1439 19.6426C37.1439 20.1418 37.219 20.5401 37.3693 20.8374C36.1671 22.7385 34.981 23.689 33.8111 23.689C32.362 23.689 31.6375 22.7173 31.6375 20.7737C31.6375 19.6055 31.9112 18.3894 32.4586 17.1256C32.8558 16.191 33.3817 15.3413 34.0365 14.5767C34.8952 13.5783 35.7217 13.0792 36.5159 13.0792ZM72.1786 13.1747C72.9299 13.1747 73.3056 13.5996 73.3056 14.4492C73.3056 15.7768 72.7099 16.961 71.5184 18.0018C70.488 18.8939 69.259 19.5046 67.8314 19.8338C68.0676 18.2832 68.5184 16.8813 69.1839 15.6281C70.0426 13.9925 71.0408 13.1747 72.1786 13.1747ZM120.77 13.2066C121.425 13.2066 121.929 13.3818 122.283 13.7323C121.489 15.7077 120.62 17.5026 119.675 19.1169C118.14 21.7933 116.841 23.1315 115.779 23.1315C115.103 23.1315 114.764 22.6535 114.764 21.6977C114.764 20.1046 115.602 18.1451 117.276 15.8193C118.521 14.0775 119.686 13.2066 120.77 13.2066Z" fill="#EAE3E1"/>
<path d="M98.6317 9.78149C99.0932 9.78149 99.324 9.27171 99.324 8.25214C99.324 8.14593 99.104 7.93883 98.6639 7.63084C98.1594 7.28036 97.7945 7.10512 97.5691 7.10512C97.4403 7.10512 97.2524 7.34408 97.0055 7.82201C96.7694 8.29993 96.6513 8.60792 96.6513 8.74599C96.6513 9.02212 96.9143 9.27171 97.4403 9.49474C97.9018 9.68591 98.299 9.78149 98.6317 9.78149Z" fill="#EAE3E1"/>
<path fill-rule="evenodd" clip-rule="evenodd" d="M166.383 10.4984C168.862 8.50172 170.102 6.40417 170.102 4.20572C170.102 1.98604 168.76 0.876192 166.077 0.876192C164.799 0.876192 163.527 1.09391 162.261 1.52935C158.515 2.81444 155.193 5.18281 152.295 8.63447C149.397 7.85918 146.89 7.47153 144.776 7.47153C142.822 7.47153 141.121 7.8167 139.672 8.50703C137.826 9.42039 136.903 10.748 136.903 12.4897C136.903 14.2952 137.847 15.644 139.736 16.5361C141.207 17.2371 142.951 17.5876 144.969 17.5876C146.032 17.5876 147.121 17.5185 148.237 17.3805C148.237 17.4442 148.227 17.5557 148.205 17.715V18.0336C148.205 19.7966 148.688 21.2463 149.654 22.3827C150.706 23.5722 152.101 24.167 153.84 24.167C157.071 24.167 161.064 22.1438 165.819 18.0973C165.658 19.4886 165.502 20.8852 165.352 22.2871C165.159 23.9546 164.939 25.3458 164.692 26.461C164.102 29.2011 163.023 30.9853 161.456 31.8137C161.155 31.2827 161.005 30.672 161.005 29.9817C161.005 28.909 161.456 27.6452 162.357 26.1902L162.325 25.999L162.052 25.8716L161.923 25.9353C160.27 27.9319 159.443 29.9764 159.443 32.0686C159.443 33.0245 159.62 33.5024 159.975 33.5024C160.329 33.5024 160.833 33.2422 161.488 32.7218C163.388 31.2243 164.751 29.4825 165.578 27.4965C166.855 24.5015 167.816 20.2852 168.46 14.8475L168.282 14.7678C162.787 20.3861 158.338 23.1952 154.935 23.1952C153.572 23.1952 152.515 22.8022 151.763 22.0163C151.023 21.2516 150.652 20.1843 150.652 18.8142C150.652 17.9752 150.706 17.3592 150.813 16.9663C153.411 16.414 155.917 15.6812 158.332 14.7678C161.756 13.4721 164.44 12.049 166.383 10.4984ZM165.223 1.75238C167.005 1.75238 167.896 2.62327 167.896 4.36503C167.896 5.84128 167.134 7.40781 165.61 9.06461C162.357 12.6119 157.49 14.9962 151.007 16.2175C151.672 13.881 152.708 11.7994 154.114 9.97266C154.243 10.0258 154.737 10.2222 155.595 10.5621C156.25 10.8489 156.712 10.9922 156.98 10.9922H157.141L157.366 10.6577L157.238 10.3709C156.958 10.2647 156.518 10.0895 155.917 9.84521C155.327 9.6328 154.887 9.46819 154.597 9.35136C156.1 7.46091 157.662 5.8519 159.282 4.52434C161.526 2.67637 163.506 1.75238 165.223 1.75238ZM146.032 8.37958C147.77 8.37958 149.681 8.66103 151.763 9.22391C149.831 11.9003 148.677 14.3802 148.302 16.6636C147.228 16.8229 146.209 16.9025 145.243 16.9025C143.611 16.9025 142.227 16.6158 141.089 16.0423C139.64 15.3307 138.915 14.2474 138.915 12.7924C138.915 11.2418 139.758 10.0736 141.443 9.28764C142.742 8.68227 144.271 8.37958 146.032 8.37958Z" fill="#EAE3E1"/>
<path d="M177.202 9.78149C177.664 9.78149 177.894 9.27171 177.894 8.25214C177.894 8.14593 177.674 7.93883 177.234 7.63084C176.73 7.28036 176.365 7.10512 176.14 7.10512C176.011 7.10512 175.823 7.34408 175.576 7.82201C175.34 8.29993 175.222 8.60792 175.222 8.74599C175.222 9.02212 175.485 9.27171 176.011 9.49474C176.472 9.68591 176.869 9.78149 177.202 9.78149Z" fill="#EAE3E1"/>
<path fill-rule="evenodd" clip-rule="evenodd" d="M179.844 18.2199C180.208 17.0769 180.894 15.9687 181.904 14.8953C183.492 13.2066 185.209 12.3623 187.056 12.3623C188.226 12.3623 189.159 12.7977 189.857 13.6686C190.501 14.497 190.823 15.4953 190.823 16.6636C190.823 17.9699 190.394 19.3187 189.535 20.71C189.642 21.1879 189.927 21.4269 190.388 21.4269C191.226 21.4269 192.224 20.6569 193.383 19.1169C193.968 18.2578 194.823 17.0167 195.948 15.3939C195.859 15.2259 195.814 15.0172 195.814 14.7678C195.814 14.1625 196.013 13.5783 196.41 13.0154C196.786 12.4738 197.269 12.1711 197.859 12.1074L197.924 12.1711C197.666 12.6915 197.537 13.0579 197.537 13.2703C197.537 13.812 197.864 14.0828 198.519 14.0828C199.142 14.0828 200.484 13.6951 202.544 12.9199L202.673 13.0154C202.061 14.1412 201.17 15.8458 200 18.1292C199.281 19.6586 198.922 20.9755 198.922 22.08C198.922 22.3243 199.008 22.542 199.179 22.7332C199.34 22.9562 199.539 23.0677 199.775 23.0677C200.784 23.0677 202.013 22.1172 203.462 20.2161C203.809 19.7057 204.231 19.0877 204.729 18.3622C205.171 17.1925 205.929 16.0635 207.004 14.9749C207.068 14.91 207.131 14.8464 207.195 14.7841C207.228 14.7364 207.261 14.6885 207.294 14.6404C207.297 14.6531 207.301 14.6657 207.304 14.6783C208.807 13.2405 210.333 12.5216 211.883 12.5216C212.366 12.5216 212.956 12.665 213.654 12.9517L216.101 3.61628C216.101 3.1596 216.3 2.91002 216.697 2.86754L218.017 2.70823C218.232 2.70823 218.339 2.80381 218.339 2.99498L218.307 3.12243C218.285 3.23926 218.275 3.31891 218.275 3.36139L213.461 21.0127C213.289 21.6605 213.203 22.096 213.203 22.319C213.203 22.9031 213.401 23.1952 213.799 23.1952C214.453 23.1952 215.232 22.696 216.133 21.6977C216.751 21.0321 217.431 20.1571 218.172 19.0725C218.599 17.4979 219.648 15.9674 221.318 14.4811C222.81 13.1535 224.468 12.4897 226.293 12.4897C227.345 12.4897 228.332 12.6968 229.255 13.111L229.416 13.3341V13.3978C229.416 13.5783 229.32 13.9819 229.126 14.6085C229.04 14.8953 228.965 15.1661 228.901 15.421L228.692 16.0741L227.178 21.2357C227.049 21.6924 226.985 22.0854 226.985 22.4146C226.985 22.85 227.184 23.0677 227.581 23.0677C228.064 23.0677 228.82 22.5314 229.851 21.4587C230.749 20.5287 232.323 18.4674 234.573 15.275L235.051 13.7323C235.212 13.2332 235.47 12.9411 235.824 12.8561L236.999 12.5534H237.209C237.402 12.5534 237.499 12.6437 237.499 12.8243C237.499 12.9305 237.488 13.0048 237.466 13.0473L235.164 20.2639C238.545 15.1024 241.051 12.5216 242.683 12.5216C243.209 12.5216 243.66 12.6968 244.035 13.0473C244.379 13.419 244.551 13.8651 244.551 14.3855C244.551 14.5554 244.433 15.044 244.196 15.8511L243.44 18.4638L242.28 22.2393C242.28 22.6111 242.5 22.7969 242.941 22.7969C243.509 22.7969 244.191 22.3933 244.985 21.5862C245.706 20.8628 246.521 19.899 247.429 18.6949C247.913 17.2529 248.923 15.8483 250.459 14.4811C251.951 13.1535 253.61 12.4897 255.435 12.4897C256.486 12.4897 257.474 12.6968 258.397 13.111L258.558 13.3341V13.3978C258.558 13.5783 258.461 13.9819 258.268 14.6085C258.182 14.8953 258.107 15.1661 258.043 15.421L257.833 16.0741L256.32 21.2357C256.191 21.6924 256.127 22.0854 256.127 22.4146C256.127 22.85 256.325 23.0677 256.723 23.0677C257.206 23.0677 257.962 22.5314 258.993 21.4587C259.916 20.5029 261.553 18.3522 263.903 15.0068C263.968 15.1555 264 15.3042 264 15.4528C264 15.9626 262.959 17.5982 260.876 20.3595C259.556 22.1013 258.333 23.2536 257.206 23.8165C256.658 24.0926 256.207 24.2307 255.853 24.2307C254.737 24.2307 254.179 23.689 254.179 22.6058C254.179 22.0429 254.495 20.8056 255.129 18.8939C253.068 22.4518 251.313 24.2307 249.864 24.2307C248.919 24.2307 248.205 23.8643 247.722 23.1315C247.304 22.5155 247.094 21.7083 247.094 20.71C247.094 20.4567 247.11 20.2045 247.141 19.9534C244.805 22.7837 243.099 24.1988 242.023 24.1988C241.422 24.1988 240.949 24.0024 240.606 23.6094C240.23 23.2271 240.042 22.7385 240.042 22.1438C240.042 21.9951 240.23 21.2888 240.606 20.025C240.906 19.0479 241.379 17.5823 242.023 15.6281L242.152 15.1661C242.28 14.7519 242.345 14.4917 242.345 14.3855C242.345 14.0562 242.157 13.8916 241.781 13.8916C241.148 13.8916 239.962 14.9909 238.223 17.1893C236.602 19.2391 235.416 21.0552 234.665 22.6376C234.558 22.9031 234.434 23.1633 234.295 23.4182C234.144 23.705 233.935 23.8696 233.667 23.9121L232.459 24.1351H232.282C232.089 24.1351 231.992 24.0395 231.992 23.8484C231.992 23.689 232.014 23.5351 232.057 23.3864L233.964 17.2382C233.446 18.0353 232.703 19.0757 231.735 20.3595C230.414 22.1013 229.191 23.2536 228.064 23.8165C227.516 24.0926 227.065 24.2307 226.711 24.2307C225.595 24.2307 225.037 23.689 225.037 22.6058C225.037 22.0429 225.353 20.8056 225.987 18.8939C223.926 22.4518 222.171 24.2307 220.722 24.2307C219.777 24.2307 219.063 23.8643 218.58 23.1315C218.162 22.5155 217.953 21.7083 217.953 20.71C217.953 20.5959 217.956 20.482 217.962 20.3684C217.585 20.8953 217.152 21.4872 216.665 22.1438C215.452 23.5563 214.185 24.2626 212.865 24.2626C211.791 24.2626 211.255 23.7634 211.255 22.7651C211.255 22.0322 211.507 20.9118 212.011 19.4037C210.165 22.6429 208.528 24.2626 207.101 24.2626C206.156 24.2626 205.432 23.928 204.927 23.2589C204.487 22.6535 204.267 21.857 204.267 20.8693C204.267 20.5721 204.286 20.2772 204.323 19.9848C203.782 20.7093 203.135 21.5511 202.383 22.5102C201.256 23.6997 200.113 24.2944 198.954 24.2944C197.483 24.2944 196.748 23.5988 196.748 22.2075C196.748 20.6038 197.934 18.0814 200.306 14.6404C198.879 15.49 197.8 15.9148 197.07 15.9148C196.754 15.9148 196.498 15.8604 196.301 15.7517C196.072 16.213 195.662 16.8674 195.074 17.715L193.85 19.4674C192.315 21.6446 190.952 22.7332 189.761 22.7332C189.278 22.7332 188.837 22.5367 188.44 22.1438C186.927 23.6731 185.376 24.4378 183.787 24.4378C182.499 24.4378 181.469 24.0448 180.696 23.2589C179.923 22.4942 179.537 21.4694 179.537 20.1843C179.537 20.0181 179.543 19.8526 179.556 19.6879C178.026 21.6534 176.672 22.9605 175.496 23.6094C174.83 23.9811 174.191 24.167 173.58 24.167C172.957 24.167 172.469 23.9864 172.114 23.6253C171.771 23.2536 171.599 22.7598 171.599 22.1438C171.599 21.7296 171.766 21.0127 172.098 19.9931L174.24 13.3978C174.347 13.0792 174.567 12.888 174.9 12.8243L176.14 12.5853H176.284C176.435 12.5853 176.51 12.665 176.51 12.8243C176.51 12.9305 176.499 12.9942 176.478 13.0154L174.175 20.0568C173.821 21.1295 173.644 21.857 173.644 22.2393C173.644 22.8766 173.928 23.1952 174.497 23.1952C175.624 23.1952 177.261 21.7349 179.408 18.8142C179.549 18.6227 179.695 18.4246 179.844 18.2199ZM186.862 13.0792C188.054 13.0792 188.8 13.8598 189.1 15.421C188.027 16.8441 187.49 18.2513 187.49 19.6426C187.49 20.1418 187.566 20.5401 187.716 20.8374C186.514 22.7385 185.328 23.689 184.158 23.689C182.709 23.689 181.984 22.7173 181.984 20.7737C181.984 19.6055 182.258 18.3894 182.805 17.1256C183.202 16.191 183.728 15.3413 184.383 14.5767C185.242 13.5783 186.068 13.0792 186.862 13.0792ZM212.076 13.2703C212.58 13.2703 213.02 13.5305 213.396 14.0509C212.58 16.4724 211.856 18.3257 211.223 19.6108C210.01 22.0004 208.802 23.1952 207.6 23.1952C206.806 23.1952 206.408 22.6748 206.408 21.634C206.408 19.7542 207.396 17.6194 209.371 15.2298C210.455 13.9235 211.357 13.2703 212.076 13.2703ZM226.132 13.2066C226.786 13.2066 227.291 13.3818 227.645 13.7323C226.851 15.7077 225.981 17.5026 225.037 19.1169C223.502 21.7933 222.203 23.1315 221.14 23.1315C220.464 23.1315 220.126 22.6535 220.126 21.6977C220.126 20.1046 220.963 18.1451 222.638 15.8193C223.883 14.0775 225.048 13.2066 226.132 13.2066ZM255.274 13.2066C255.928 13.2066 256.433 13.3818 256.787 13.7323C255.993 15.7077 255.123 17.5026 254.179 19.1169C252.644 21.7933 251.345 23.1315 250.282 23.1315C249.606 23.1315 249.268 22.6535 249.268 21.6977C249.268 20.1046 250.105 18.1451 251.78 15.8193C253.025 14.0775 254.189 13.2066 255.274 13.2066Z" fill="#EAE3E1"/>
<path d="M65.7283 49.0644H62.0769V39.8235H61.0586V49.8848H65.7283V49.0644Z" fill="#EAE3E1"/>
<path fill-rule="evenodd" clip-rule="evenodd" d="M67.1961 43.825C66.876 44.4296 66.716 45.1349 66.716 45.9409C66.716 46.747 66.876 47.4571 67.1961 48.0712C67.5258 48.6854 67.9768 49.1604 68.549 49.4962C69.1309 49.8321 69.7806 50 70.4983 50C71.2548 50 71.9046 49.8273 72.4477 49.4818C73.0005 49.1268 73.4029 48.6806 73.6551 48.1432V49.8848H74.6734V42.0258H73.6551V43.753C73.4126 43.2157 73.015 42.7743 72.4622 42.4288C71.9191 42.0833 71.2693 41.9106 70.5129 41.9106C69.7855 41.9106 69.1309 42.0785 68.549 42.4144C67.9768 42.7407 67.5258 43.2109 67.1961 43.825ZM73.2623 44.2856C73.5242 44.7654 73.6551 45.322 73.6551 45.9553C73.6551 46.5886 73.5242 47.1452 73.2623 47.625C73.0005 48.1048 72.6416 48.4742 72.1858 48.7333C71.7397 48.9924 71.2451 49.122 70.702 49.122C70.1395 49.122 69.6352 48.9972 69.1891 48.7477C68.7429 48.4886 68.389 48.1192 68.1271 47.6394C67.875 47.15 67.7489 46.5838 67.7489 45.9409C67.7489 45.2884 67.875 44.727 68.1271 44.2568C68.389 43.777 68.7429 43.4124 69.1891 43.1629C69.6352 42.9134 70.1395 42.7887 70.702 42.7887C71.2451 42.7887 71.7397 42.9182 72.1858 43.1773C72.6416 43.4364 73.0005 43.8058 73.2623 44.2856Z" fill="#EAE3E1"/>
<path d="M82.497 42.0258L79.8203 48.9061L77.1436 42.0258H76.0525L79.2384 49.8848H80.3876L83.5735 42.0258H82.497Z" fill="#EAE3E1"/>
<path fill-rule="evenodd" clip-rule="evenodd" d="M86.4084 49.5106C87.0097 49.8369 87.6837 50 88.4305 50C89.1772 50 89.8561 49.8369 90.4671 49.5106C91.0781 49.1747 91.5581 48.6998 91.9073 48.0856C92.2564 47.4715 92.431 46.7614 92.431 45.9553C92.431 45.1397 92.2564 44.4296 91.9073 43.825C91.5678 43.2109 91.0926 42.7407 90.4816 42.4144C89.8803 42.0785 89.2063 41.9106 88.4596 41.9106C87.7128 41.9106 87.0388 42.0785 86.4375 42.4144C85.8362 42.7407 85.361 43.2109 85.0118 43.825C84.6627 44.4296 84.4881 45.1397 84.4881 45.9553C84.4881 46.771 84.6579 47.4859 84.9973 48.1C85.3464 48.7046 85.8168 49.1747 86.4084 49.5106ZM89.8852 48.7765C89.4391 49.0068 88.9542 49.122 88.4305 49.122C87.9068 49.122 87.4218 49.0068 86.9757 48.7765C86.5393 48.5366 86.1853 48.1816 85.9138 47.7114C85.6519 47.2316 85.521 46.6462 85.521 45.9553C85.521 45.2644 85.6519 44.6838 85.9138 44.2136C86.1853 43.7339 86.5442 43.3788 86.9903 43.1485C87.4364 42.9086 87.9213 42.7887 88.445 42.7887C88.9687 42.7887 89.4536 42.9086 89.8997 43.1485C90.3458 43.3788 90.7047 43.7339 90.9762 44.2136C91.2478 44.6838 91.3836 45.2644 91.3836 45.9553C91.3836 46.6462 91.2429 47.2316 90.9617 47.7114C90.6901 48.1816 90.3313 48.5366 89.8852 48.7765Z" fill="#EAE3E1"/>
<path d="M96.3238 42.2849C95.868 42.5536 95.5286 42.9326 95.3055 43.422V42.0258H94.2872V49.8848H95.3055V45.4947C95.3055 44.5735 95.5286 43.9162 95.9747 43.5227C96.4208 43.1293 97.0124 42.9326 97.7495 42.9326H98.0259V41.8818C97.3567 41.8818 96.7893 42.0162 96.3238 42.2849Z" fill="#EAE3E1"/>
<path fill-rule="evenodd" clip-rule="evenodd" d="M99.5723 43.825C99.2523 44.4296 99.0923 45.1349 99.0923 45.9409C99.0923 46.747 99.2523 47.4571 99.5723 48.0712C99.902 48.6854 100.353 49.1604 100.925 49.4962C101.507 49.8321 102.157 50 102.875 50C103.631 50 104.281 49.8273 104.824 49.4818C105.377 49.1268 105.779 48.6806 106.031 48.1432V49.8848H107.05V42.0258H106.031V43.753C105.789 43.2157 105.391 42.7743 104.838 42.4288C104.295 42.0833 103.646 41.9106 102.889 41.9106C102.162 41.9106 101.507 42.0785 100.925 42.4144C100.353 42.7407 99.902 43.2109 99.5723 43.825ZM105.639 44.2856C105.9 44.7654 106.031 45.322 106.031 45.9553C106.031 46.5886 105.9 47.1452 105.639 47.625C105.377 48.1048 105.018 48.4742 104.562 48.7333C104.116 48.9924 103.621 49.122 103.078 49.122C102.516 49.122 102.011 48.9972 101.565 48.7477C101.119 48.4886 100.765 48.1192 100.503 47.6394C100.251 47.15 100.125 46.5838 100.125 45.9409C100.125 45.2884 100.251 44.727 100.503 44.2568C100.765 43.777 101.119 43.4124 101.565 43.1629C102.011 42.9134 102.516 42.7887 103.078 42.7887C103.621 42.7887 104.116 42.9182 104.562 43.1773C105.018 43.4364 105.377 43.8058 105.639 44.2856Z" fill="#EAE3E1"/>
<path d="M114.073 49.05H109.913L114 42.8606V42.0258H108.822V42.8606H112.837L108.749 49.05V49.8848H114.073V49.05Z" fill="#EAE3E1"/>
<path d="M115.781 40.3273C115.927 40.4712 116.101 40.5432 116.305 40.5432C116.508 40.5432 116.683 40.4712 116.828 40.3273C116.974 40.1833 117.047 40.0058 117.047 39.7947C117.047 39.5836 116.974 39.4109 116.828 39.2765C116.683 39.1326 116.508 39.0606 116.305 39.0606C116.101 39.0606 115.927 39.1326 115.781 39.2765C115.636 39.4109 115.563 39.5836 115.563 39.7947C115.563 40.0058 115.636 40.1833 115.781 40.3273Z" fill="#EAE3E1"/>
<path fill-rule="evenodd" clip-rule="evenodd" d="M120.575 49.5106C121.176 49.8369 121.85 50 122.597 50C123.343 50 124.022 49.8369 124.633 49.5106C125.244 49.1747 125.724 48.6998 126.073 48.0856C126.423 47.4715 126.597 46.7614 126.597 45.9553C126.597 45.1397 126.423 44.4296 126.073 43.825C125.734 43.2109 125.259 42.7407 124.648 42.4144C124.047 42.0785 123.373 41.9106 122.626 41.9106C121.879 41.9106 121.205 42.0785 120.604 42.4144C120.002 42.7407 119.527 43.2109 119.178 43.825C118.829 44.4296 118.654 45.1397 118.654 45.9553C118.654 46.771 118.824 47.4859 119.164 48.1C119.513 48.7046 119.983 49.1747 120.575 49.5106ZM124.051 48.7765C123.605 49.0068 123.12 49.122 122.597 49.122C122.073 49.122 121.588 49.0068 121.142 48.7765C120.706 48.5366 120.352 48.1816 120.08 47.7114C119.818 47.2316 119.687 46.6462 119.687 45.9553C119.687 45.2644 119.818 44.6838 120.08 44.2136C120.352 43.7339 120.71 43.3788 121.157 43.1485C121.603 42.9086 122.088 42.7887 122.611 42.7887C123.135 42.7887 123.62 42.9086 124.066 43.1485C124.512 43.3788 124.871 43.7339 125.142 44.2136C125.414 44.6838 125.55 45.2644 125.55 45.9553C125.55 46.6462 125.409 47.2316 125.128 47.7114C124.856 48.1816 124.498 48.5366 124.051 48.7765Z" fill="#EAE3E1"/>
<path d="M116.814 49.8848V42.0258H115.796V49.8848H116.814Z" fill="#EAE3E1"/>
<path d="M134.505 42.7599C133.904 42.1745 133.128 41.8818 132.178 41.8818C131.576 41.8818 131.038 42.0114 130.563 42.2705C130.088 42.52 129.724 42.8846 129.472 43.3644V42.0258H128.453V49.8848H129.472V45.5955C129.472 44.6647 129.7 43.9594 130.155 43.4796C130.611 42.9998 131.222 42.7599 131.988 42.7599C132.735 42.7599 133.322 42.9854 133.749 43.4364C134.185 43.8874 134.403 44.5399 134.403 45.3939V49.8848H135.407V45.2788C135.407 44.1753 135.106 43.3356 134.505 42.7599Z" fill="#EAE3E1"/>
<path fill-rule="evenodd" clip-rule="evenodd" d="M144.816 46.3439C144.836 46.1616 144.845 45.8977 144.845 45.5523C144.845 44.8806 144.69 44.2712 144.38 43.7243C144.079 43.1677 143.643 42.7263 143.071 42.4C142.508 42.0738 141.849 41.9106 141.092 41.9106C140.336 41.9106 139.662 42.0738 139.07 42.4C138.479 42.7263 138.018 43.1965 137.688 43.8106C137.358 44.4248 137.194 45.1397 137.194 45.9553C137.194 46.771 137.358 47.4859 137.688 48.1C138.028 48.7046 138.493 49.1747 139.085 49.5106C139.676 49.8369 140.346 50 141.092 50C142.052 50 142.848 49.7601 143.478 49.2803C144.118 48.7909 144.535 48.1624 144.729 47.3947H143.653C143.507 47.9321 143.206 48.3591 142.751 48.6758C142.305 48.9924 141.752 49.1508 141.092 49.1508C140.588 49.1508 140.122 49.0452 139.696 48.8341C139.269 48.6134 138.925 48.2919 138.663 47.8697C138.401 47.4475 138.256 46.9389 138.226 46.3439H144.816ZM143.449 44.0265C143.701 44.4392 143.822 44.9381 143.813 45.5235H138.226C138.285 44.6503 138.58 43.9738 139.114 43.494C139.647 43.0142 140.292 42.7743 141.049 42.7743C141.553 42.7743 142.018 42.8798 142.445 43.0909C142.872 43.302 143.206 43.6139 143.449 44.0265Z" fill="#EAE3E1"/>
<path fill-rule="evenodd" clip-rule="evenodd" d="M153.595 45.6818L156.112 49.8848H157.334L154.716 45.6099C155.54 45.4563 156.161 45.1253 156.578 44.6167C157.004 44.0985 157.218 43.4748 157.218 42.7455C157.218 41.8722 156.922 41.1669 156.33 40.6296C155.748 40.0922 154.89 39.8235 153.755 39.8235H150.701V49.8848H151.719V45.6818H153.595ZM153.77 44.8614H151.719V40.6727H153.755C154.59 40.6727 155.201 40.8551 155.588 41.2197C155.976 41.5748 156.17 42.0833 156.17 42.7455C156.17 43.3884 155.967 43.9018 155.559 44.2856C155.162 44.6695 154.565 44.8614 153.77 44.8614Z" fill="#EAE3E1"/>
<path fill-rule="evenodd" clip-rule="evenodd" d="M159.253 43.825C158.933 44.4296 158.773 45.1349 158.773 45.9409C158.773 46.747 158.933 47.4571 159.253 48.0712C159.583 48.6854 160.034 49.1604 160.606 49.4962C161.188 49.8321 161.838 50 162.555 50C163.312 50 163.962 49.8273 164.505 49.4818C165.057 49.1268 165.46 48.6806 165.712 48.1432V49.8848H166.73V42.0258H165.712V43.753C165.47 43.2157 165.072 42.7743 164.519 42.4288C163.976 42.0833 163.326 41.9106 162.57 41.9106C161.843 41.9106 161.188 42.0785 160.606 42.4144C160.034 42.7407 159.583 43.2109 159.253 43.825ZM165.319 44.2856C165.581 44.7654 165.712 45.322 165.712 45.9553C165.712 46.5886 165.581 47.1452 165.319 47.625C165.057 48.1048 164.699 48.4742 164.243 48.7333C163.797 48.9924 163.302 49.122 162.759 49.122C162.197 49.122 161.692 48.9972 161.246 48.7477C160.8 48.4886 160.446 48.1192 160.184 47.6394C159.932 47.15 159.806 46.5838 159.806 45.9409C159.806 45.2884 159.932 44.727 160.184 44.2568C160.446 43.777 160.8 43.4124 161.246 43.1629C161.692 42.9134 162.197 42.7887 162.759 42.7887C163.302 42.7887 163.797 42.9182 164.243 43.1773C164.699 43.4364 165.057 43.8058 165.319 44.2856Z" fill="#EAE3E1"/>
<path fill-rule="evenodd" clip-rule="evenodd" d="M169.084 43.825C168.754 44.4296 168.59 45.1349 168.59 45.9409C168.59 46.747 168.75 47.4571 169.07 48.0712C169.399 48.6854 169.85 49.1604 170.423 49.4962C171.004 49.8321 171.659 50 172.386 50C173.133 50 173.783 49.8273 174.336 49.4818C174.889 49.1268 175.286 48.6758 175.529 48.1288V49.8848H176.547V39.2334H175.529V43.7243C175.267 43.1869 174.855 42.7503 174.292 42.4144C173.73 42.0785 173.099 41.9106 172.401 41.9106C171.674 41.9106 171.019 42.0785 170.437 42.4144C169.865 42.7407 169.414 43.2109 169.084 43.825ZM175.136 44.2856C175.398 44.7654 175.529 45.322 175.529 45.9553C175.529 46.5886 175.398 47.1452 175.136 47.625C174.874 48.1048 174.515 48.4742 174.059 48.7333C173.613 48.9924 173.119 49.122 172.576 49.122C172.013 49.122 171.509 48.9972 171.063 48.7477C170.617 48.4886 170.263 48.1192 170.001 47.6394C169.749 47.15 169.622 46.5838 169.622 45.9409C169.622 45.2884 169.749 44.727 170.001 44.2568C170.263 43.777 170.617 43.4124 171.063 43.1629C171.509 42.9134 172.013 42.7887 172.576 42.7887C173.119 42.7887 173.613 42.9182 174.059 43.1773C174.515 43.4364 174.874 43.8058 175.136 44.2856Z" fill="#EAE3E1"/>
<path d="M178.857 40.3273C179.003 40.4712 179.177 40.5432 179.381 40.5432C179.585 40.5432 179.759 40.4712 179.905 40.3273C180.05 40.1833 180.123 40.0058 180.123 39.7947C180.123 39.5836 180.05 39.4109 179.905 39.2765C179.759 39.1326 179.585 39.0606 179.381 39.0606C179.177 39.0606 179.003 39.1326 178.857 39.2765C178.712 39.4109 178.639 39.5836 178.639 39.7947C178.639 40.0058 178.712 40.1833 178.857 40.3273Z" fill="#EAE3E1"/>
<path d="M182.225 43.825C181.895 44.4296 181.73 45.1397 181.73 45.9553C181.73 46.771 181.895 47.4859 182.225 48.1C182.555 48.7046 183.011 49.1747 183.593 49.5106C184.174 49.8369 184.839 50 185.585 50C186.555 50 187.36 49.7553 188 49.2659C188.64 48.7765 189.053 48.1288 189.237 47.3227H188.146C188.01 47.8985 187.714 48.3495 187.258 48.6758C186.812 48.9924 186.255 49.1508 185.585 49.1508C185.052 49.1508 184.572 49.0308 184.145 48.7909C183.719 48.551 183.379 48.1912 183.127 47.7114C182.885 47.2316 182.763 46.6462 182.763 45.9553C182.763 45.2644 182.885 44.6838 183.127 44.2136C183.379 43.7339 183.719 43.374 184.145 43.1341C184.572 42.8942 185.052 42.7743 185.585 42.7743C186.255 42.7743 186.812 42.9374 187.258 43.2636C187.714 43.5803 188.01 44.0217 188.146 44.5879H189.237C189.053 43.7626 188.64 43.1101 188 42.6303C187.37 42.1505 186.565 41.9106 185.585 41.9106C184.839 41.9106 184.174 42.0785 183.593 42.4144C183.011 42.7407 182.555 43.2109 182.225 43.825Z" fill="#EAE3E1"/>
<path d="M179.89 49.8848V42.0258H178.872V49.8848H179.89Z" fill="#EAE3E1"/>
<path fill-rule="evenodd" clip-rule="evenodd" d="M191.132 43.825C190.812 44.4296 190.652 45.1349 190.652 45.9409C190.652 46.747 190.812 47.4571 191.132 48.0712C191.462 48.6854 191.913 49.1604 192.485 49.4962C193.067 49.8321 193.717 50 194.434 50C195.191 50 195.841 49.8273 196.384 49.4818C196.936 49.1268 197.339 48.6806 197.591 48.1432V49.8848H198.609V42.0258H197.591V43.753C197.349 43.2157 196.951 42.7743 196.398 42.4288C195.855 42.0833 195.205 41.9106 194.449 41.9106C193.722 41.9106 193.067 42.0785 192.485 42.4144C191.913 42.7407 191.462 43.2109 191.132 43.825ZM197.198 44.2856C197.46 44.7654 197.591 45.322 197.591 45.9553C197.591 46.5886 197.46 47.1452 197.198 47.625C196.936 48.1048 196.578 48.4742 196.122 48.7333C195.676 48.9924 195.181 49.122 194.638 49.122C194.076 49.122 193.571 48.9972 193.125 48.7477C192.679 48.4886 192.325 48.1192 192.063 47.6394C191.811 47.15 191.685 46.5838 191.685 45.9409C191.685 45.2884 191.811 44.727 192.063 44.2568C192.325 43.777 192.679 43.4124 193.125 43.1629C193.571 42.9134 194.076 42.7887 194.638 42.7887C195.181 42.7887 195.676 42.9182 196.122 43.1773C196.578 43.4364 196.936 43.8058 197.198 44.2856Z" fill="#EAE3E1"/>
</svg>
