<svg width="264" height="49" viewBox="0 0 264 49" fill="none" xmlns="http://www.w3.org/2000/svg">
<path fill-rule="evenodd" clip-rule="evenodd" d="M24.432 21.8046C26.0265 20.213 26.8238 18.2448 26.8238 15.8999C26.8238 11.9952 24.4373 8.28151 19.6644 4.75882C20.7345 2.52 22.5324 1.13002 25.058 0.588884L25.1864 0.41381V0.127326L25.058 0C22.2114 0.190989 19.8623 1.48017 18.0109 3.86753C14.8111 2.41389 11.82 1.68707 9.03758 1.68707C7.946 1.68707 6.86513 1.83031 5.79497 2.1168C4.1255 2.59427 2.77709 3.35292 1.74973 4.39275C0.583242 5.57052 0 6.97111 0 8.59452C0 11.2471 1.46078 13.4966 4.38234 15.3428C6.50128 16.6903 9.16065 17.7036 12.3605 18.3827C11.5471 19.9849 10.9799 20.9505 10.6589 21.2794C9.13924 20.8444 7.67846 20.6268 6.27654 20.6268C5.12076 20.6268 3.88471 20.8231 2.56841 21.2157C0.941749 21.6932 0.12842 22.3033 0.12842 23.046V23.237C1.44473 23.8843 3.157 24.2079 5.26523 24.2079C7.85504 24.2079 9.91512 23.5819 11.4455 22.3298C14.2493 23.5819 16.593 24.2079 18.4765 24.2079C20.8201 24.2079 22.8053 23.4068 24.432 21.8046ZM23.4046 9.61313C24.4641 11.332 24.9938 13.1358 24.9938 15.0245C24.9938 17.3694 24.25 19.2581 22.7625 20.6905C21.2857 22.1229 19.354 22.8391 16.9675 22.8391C15.4586 22.8391 13.8266 22.4731 12.0715 21.7409C12.9704 20.6481 13.7356 19.5923 14.367 18.5737H14.4633C14.5489 18.6161 14.9449 18.6374 15.6512 18.6374C17.2244 18.6374 18.4979 18.3137 19.4717 17.6665C20.6061 16.9025 21.1733 15.7831 21.1733 14.3083C21.1733 12.5045 20.1192 10.8493 18.0109 9.34256C18.3855 7.95258 18.8457 6.68462 19.3915 5.53869C21.0609 6.64218 22.3986 8.00033 23.4046 9.61313ZM17.6899 10.1065C19.5092 11.3161 20.4188 12.7167 20.4188 14.3083C20.4188 15.4967 19.9587 16.4304 19.0383 17.1095C18.225 17.6718 17.1816 17.953 15.9081 17.953C15.7796 17.953 15.5977 17.9424 15.3623 17.9212C15.0947 17.8999 14.8968 17.8893 14.7683 17.8893C15.7743 16.1704 16.7481 13.5762 17.6899 10.1065ZM9.72784 2.57836C12.2962 2.57836 14.9075 3.23621 17.5615 4.55191C16.898 5.89945 16.395 7.10904 16.0525 8.18071C14.0299 7.2682 12.0876 6.81195 10.2255 6.81195C9.57266 6.81195 8.73793 6.87561 7.72127 7.00294C6.47987 7.15149 5.78961 7.41144 5.65049 7.78281L5.58628 7.9738L5.65049 8.30803L5.92339 8.33986C7.19689 7.81995 8.556 7.55999 10.0007 7.55999C11.9056 7.55999 13.8319 7.99502 15.7796 8.86508L15.5228 9.77228C14.5382 13.1676 13.5751 15.8097 12.6333 17.6983C9.93652 17.1041 7.68916 16.2235 5.89128 15.0563C3.42989 13.4647 2.1992 11.5389 2.1992 9.27889C2.1992 8.21784 2.39718 7.2629 2.79314 6.41406C3.39244 5.1514 4.34489 4.18585 5.65049 3.51739C6.83838 2.89137 8.19749 2.57836 9.72784 2.57836ZM7.11127 21.4385C8.05302 21.4385 9.01617 21.5818 10.0007 21.8683C8.70583 22.993 6.99355 23.5553 4.86392 23.5553C4.02919 23.5553 3.28542 23.428 2.63262 23.1734C3.70278 22.0168 5.19567 21.4385 7.11127 21.4385Z" fill="#EAE3E1"/>
<path fill-rule="evenodd" clip-rule="evenodd" d="M45.0907 16.9624C44.9425 17.189 44.7769 17.4343 44.5939 17.6983L43.374 19.4491C41.8436 21.6242 40.4845 22.7118 39.2966 22.7118C38.815 22.7118 38.3763 22.5155 37.9803 22.1229C36.4714 23.6508 34.925 24.4148 33.3411 24.4148C32.0569 24.4148 31.0296 24.0222 30.259 23.237C29.4885 22.4731 29.1032 21.4492 29.1032 20.1653C29.1032 18.3191 29.8898 16.5577 31.463 14.8812C33.0468 13.1942 34.7591 12.3506 36.5998 12.3506C37.7663 12.3506 38.6973 12.7857 39.3929 13.6557C40.035 14.4834 40.3561 15.4807 40.3561 16.6479C40.3561 17.953 39.928 19.3005 39.0719 20.6905C39.1789 21.168 39.4625 21.4067 39.9227 21.4067C40.7574 21.4067 41.7526 20.6375 42.9084 19.0989C43.5265 18.1896 44.4463 16.8522 45.668 15.0867L46.1671 13.4647C46.2527 13.1783 46.4132 12.9926 46.6487 12.9077L48.0292 12.6371H48.1576C48.3609 12.6371 48.4626 12.7273 48.4626 12.9077C48.4626 13.0138 48.4519 13.0775 48.4305 13.0987L46.3276 19.8788C47.462 17.8628 48.3716 16.3986 49.0565 15.486C50.5441 13.5019 51.8711 12.5098 53.0376 12.5098C54.2148 12.5098 54.8034 13.0297 54.8034 14.0695C54.8034 14.8547 54.3004 16.823 53.2944 19.9743C56.323 15.0404 58.6881 12.5735 60.3896 12.5735C61.5347 12.5735 62.1073 13.2048 62.1073 14.4674C62.1073 14.7115 61.8986 15.5179 61.4812 16.8866C61.2565 17.5127 60.9515 18.4358 60.5662 19.656C60.1488 20.8656 59.9402 21.6879 59.9402 22.1229C59.9402 22.6216 60.181 22.871 60.6625 22.871C61.5829 22.871 62.7226 21.9956 64.0817 20.2449C64.5497 19.5582 65.1613 18.6732 65.9166 17.5898C66.288 16.6794 66.8589 15.7819 67.6293 14.8972C69.0955 13.1995 70.6526 12.3506 72.3006 12.3506C73.039 12.3506 73.6704 12.5469 74.1948 12.9395C74.7727 13.3958 75.0617 13.9794 75.0617 14.6903C75.0617 16.0378 74.1199 17.3111 72.2364 18.51C70.8987 19.3589 69.363 20.0433 67.6293 20.5632C67.6293 21.3908 67.8487 22.0752 68.2875 22.6163C68.7048 23.1574 69.3148 23.428 70.1175 23.428C71.7441 23.428 73.5527 22.4306 75.5432 20.4359C76.8518 19.1288 78.147 17.4595 79.4288 15.4279L79.9577 13.7194C80.1182 13.2207 80.375 12.9289 80.7282 12.844L81.9 12.5416H82.1087C82.3013 12.5416 82.3977 12.6318 82.3977 12.8122C82.3977 12.9183 82.387 12.9926 82.3656 13.035L80.07 20.2449C83.4411 15.0882 85.9399 12.5098 87.5666 12.5098C88.091 12.5098 88.5404 12.6849 88.915 13.035C89.2574 13.4064 89.4287 13.852 89.4287 14.3719C89.4287 14.5417 89.311 15.0298 89.0755 15.8362L88.3211 18.4464L87.1653 22.2184C87.1653 22.5898 87.3847 22.7755 87.8234 22.7755C88.3906 22.7755 89.0702 22.3723 89.8621 21.5659C90.6326 20.7913 91.5102 19.7409 92.4947 18.4145C93.2738 17.3067 94.048 16.2134 94.8173 15.1348L95.3842 13.3852C95.4912 13.0668 95.7106 12.8759 96.0423 12.8122L97.2784 12.5735H97.4228C97.5727 12.5735 97.6476 12.653 97.6476 12.8122C97.6476 12.9183 97.6369 12.982 97.6155 13.0032L95.32 20.038C94.9668 21.1096 94.7902 21.8364 94.7902 22.2184C94.7902 22.855 95.0738 23.1734 95.641 23.1734C96.7647 23.1734 98.3967 21.7144 100.537 18.7965C100.738 18.5234 100.948 18.2369 101.165 17.9371C101.517 16.9831 102.099 16.0546 102.913 15.1518C104.572 13.2844 106.278 12.3506 108.034 12.3506C108.783 12.3506 109.419 12.5257 109.944 12.8759C110.511 13.2897 110.795 13.852 110.795 14.5629C110.795 15.1253 110.586 15.6028 110.169 15.9954C109.73 16.3879 109.227 16.5842 108.66 16.5842C108.199 16.5842 107.857 16.4304 107.632 16.1227C108.467 15.6452 108.884 15.051 108.884 14.3401C108.884 13.5125 108.526 13.0987 107.809 13.0987C106.995 13.0987 106.161 13.6398 105.305 14.7221C104.673 15.5497 104.17 16.4622 103.796 17.4596C103.378 18.5737 103.17 19.587 103.17 20.4995C103.17 22.4094 104.058 23.3644 105.834 23.3644C107.825 23.3644 110.104 21.8311 112.673 18.7647C112.73 18.6978 112.787 18.6303 112.844 18.5621C113.17 17.2928 113.889 16.0658 115 14.8812C116.584 13.1942 118.296 12.3506 120.137 12.3506C121.304 12.3506 122.235 12.7857 122.93 13.6557C123.572 14.4834 123.893 15.4807 123.893 16.6479C123.893 17.953 123.465 19.3005 122.609 20.6905C122.716 21.168 123 21.4067 123.46 21.4067C124.295 21.4067 125.29 20.6375 126.446 19.0989C127.109 18.1228 128.121 16.6532 129.48 14.6903C129.544 14.7858 129.576 14.9184 129.576 15.0882C129.576 15.4383 129.094 16.3084 128.131 17.6983L126.911 19.4491C125.381 21.6242 124.022 22.7118 122.834 22.7118C122.352 22.7118 121.914 22.5155 121.518 22.1229C120.009 23.6508 118.462 24.4148 116.879 24.4148C115.594 24.4148 114.567 24.0222 113.796 23.237C113.026 22.4731 112.641 21.4492 112.641 20.1653C112.641 20.0638 112.643 19.9626 112.648 19.8616C111.924 20.6437 111.119 21.3868 110.233 22.0911C108.349 23.5978 106.573 24.3511 104.903 24.3511C103.683 24.3511 102.688 23.9585 101.918 23.1734C101.147 22.3882 100.762 21.3855 100.762 20.1653C100.762 19.9517 100.772 19.7392 100.794 19.5279C99.2233 21.5704 97.8375 22.9235 96.6363 23.5872C95.9728 23.9585 95.336 24.1442 94.726 24.1442C94.1053 24.1442 93.6184 23.9638 93.2652 23.6031C92.9228 23.2317 92.7515 22.7383 92.7515 22.1229C92.7515 21.7091 92.9174 20.9929 93.2492 19.9743L94.1924 17.0633C93.7932 17.6593 93.2487 18.3909 92.5589 19.2581C89.9477 22.5367 88.0642 24.1761 86.9084 24.1761C86.3091 24.1761 85.8383 23.9798 85.4958 23.5872C85.1212 23.2052 84.934 22.7171 84.934 22.1229C84.934 21.9744 85.1212 21.2688 85.4958 20.0061C85.7955 19.03 86.2663 17.5657 86.9084 15.6134L87.0368 15.1518C87.1653 14.738 87.2295 14.478 87.2295 14.3719C87.2295 14.043 87.0422 13.8786 86.6676 13.8786C86.0362 13.8786 84.8537 14.9767 83.12 17.1731C81.5041 19.2209 80.3215 21.0353 79.5724 22.6163C79.4654 22.8816 79.3423 23.1415 79.2032 23.3962C79.0534 23.6827 78.8447 23.8471 78.5772 23.8896L77.3732 24.1124H77.1966C77.004 24.1124 76.9077 24.0169 76.9077 23.8259C76.9077 23.6668 76.9291 23.5129 76.9719 23.3644L78.6688 17.8829C78.6083 17.9684 78.5457 18.0554 78.4808 18.144C76.7044 20.6056 74.7834 22.367 72.718 23.428C71.5408 24.0434 70.4011 24.3511 69.2988 24.3511C68.0788 24.3511 67.1264 23.9585 66.4414 23.1734C65.7458 22.4094 65.398 21.4067 65.398 20.1653C65.398 19.9178 65.412 19.6713 65.44 19.4256C65.0136 20.0155 64.593 20.6016 64.178 21.1839C63.2791 22.3298 62.4016 23.1681 61.5454 23.6986C60.9996 24.0381 60.3415 24.2079 59.571 24.2079C59.068 24.2079 58.6399 24.0275 58.2868 23.6668C57.9443 23.3166 57.7731 22.8922 57.7731 22.3935C57.7731 21.6932 58.0888 20.4093 58.7202 18.5419C58.763 18.4145 58.8593 18.1652 59.0091 17.7938L59.4746 16.5206C59.8706 15.3959 60.0686 14.7009 60.0686 14.4356C60.0686 14.0006 59.8492 13.7831 59.4104 13.7831C58.3831 13.7831 56.6173 15.8574 54.1131 20.0061C53.7599 20.6215 53.2035 21.7409 52.4436 23.3644C52.3045 23.6721 52.0637 23.8684 51.7213 23.9532L50.4692 24.1442C50.2444 24.1442 50.1321 24.0912 50.1321 23.9851C50.1321 23.8153 50.1535 23.6508 50.1963 23.4917L52.4436 15.5179C52.4436 15.3375 52.4864 15.12 52.5721 14.8653C52.6363 14.6001 52.6684 14.425 52.6684 14.3401C52.6684 13.9263 52.4811 13.7194 52.1065 13.7194C51.1434 13.7194 49.5114 15.6876 47.2105 19.6241C47.1677 19.709 46.9162 20.2289 46.456 21.1839L45.9263 22.3298C45.7551 22.7649 45.4822 23.2423 45.1076 23.7622C44.9792 23.8259 44.8829 23.8684 44.8187 23.8896L43.2616 24.1442C43.1118 24.1442 43.0368 24.0593 43.0368 23.8896C43.0368 23.741 43.0583 23.5872 43.1011 23.428L45.0907 16.9624ZM36.4072 13.0668C37.595 13.0668 38.3388 13.8467 38.6385 15.4065C37.5683 16.8283 37.0332 18.2342 37.0332 19.6241C37.0332 20.1228 37.1081 20.5207 37.2579 20.8178C36.0593 22.7171 34.8768 23.6668 33.7103 23.6668C32.2656 23.6668 31.5432 22.6959 31.5432 20.7542C31.5432 19.587 31.8161 18.3721 32.3619 17.1095C32.7579 16.1757 33.2823 15.3269 33.9351 14.5629C34.7912 13.5655 35.6152 13.0668 36.4072 13.0668ZM71.9635 13.1623C72.7126 13.1623 73.0872 13.5868 73.0872 14.4356C73.0872 15.7619 72.4932 16.945 71.3054 17.9848C70.278 18.8761 69.0527 19.4862 67.6293 19.8151C67.8648 18.266 68.3142 16.8654 68.9777 15.6134C69.8339 13.9794 70.8291 13.1623 71.9635 13.1623ZM119.945 13.0668C121.132 13.0668 121.876 13.8467 122.176 15.4065C121.106 16.8283 120.571 18.2342 120.571 19.6241C120.571 20.1228 120.646 20.5207 120.795 20.8178C119.597 22.7171 118.414 23.6668 117.248 23.6668C115.803 23.6668 115.081 22.6959 115.081 20.7542C115.081 19.587 115.354 18.3721 115.899 17.1095C116.295 16.1757 116.82 15.3269 117.472 14.5629C118.329 13.5655 119.153 13.0668 119.945 13.0668Z" fill="#EAE3E1"/>
<path d="M98.3378 9.77228C98.798 9.77228 99.0281 9.26298 99.0281 8.24437C99.0281 8.13826 98.8087 7.93136 98.3699 7.62365C97.867 7.27351 97.5031 7.09843 97.2784 7.09843C97.1499 7.09843 96.9627 7.33717 96.7165 7.81464C96.4811 8.29212 96.3634 8.59982 96.3634 8.73776C96.3634 9.01363 96.6256 9.26298 97.1499 9.4858C97.6101 9.67679 98.0061 9.77228 98.3378 9.77228Z" fill="#EAE3E1"/>
<path fill-rule="evenodd" clip-rule="evenodd" d="M166.208 10.4885C168.68 8.49372 169.916 6.39814 169.916 4.20176C169.916 1.98417 168.578 0.875367 165.903 0.875367C164.629 0.875367 163.361 1.09288 162.099 1.52791C158.364 2.81179 155.051 5.17793 152.162 8.62635C149.273 7.85178 146.774 7.4645 144.665 7.4645C142.718 7.4645 141.022 7.80934 139.577 8.49902C137.736 9.41153 136.816 10.7378 136.816 12.478C136.816 14.2818 137.758 15.6293 139.641 16.5206C141.107 17.2209 142.846 17.571 144.858 17.571C145.918 17.571 147.004 17.502 148.117 17.3641C148.117 17.4278 148.106 17.5392 148.085 17.6983V18.0167C148.085 19.778 148.566 21.2263 149.529 22.3617C150.578 23.55 151.969 24.1442 153.703 24.1442C156.924 24.1442 160.905 22.1229 165.646 18.0803C165.486 19.4703 165.33 20.8656 165.181 22.2662C164.988 23.932 164.769 25.322 164.522 26.4361C163.934 29.1736 162.858 30.9562 161.296 31.7838C160.996 31.2533 160.846 30.6432 160.846 29.9535C160.846 28.8818 161.296 27.6192 162.195 26.1655L162.163 25.9745L161.89 25.8472L161.761 25.9109C160.113 27.9057 159.289 29.9482 159.289 32.0384C159.289 32.9934 159.466 33.4709 159.819 33.4709C160.172 33.4709 160.675 33.2109 161.328 32.691C163.222 31.1949 164.581 29.4548 165.405 27.4706C166.679 24.4785 167.637 20.2661 168.279 14.8335L168.102 14.7539C162.623 20.3669 158.187 23.1734 154.795 23.1734C153.435 23.1734 152.381 22.7808 151.632 21.9956C150.894 21.2316 150.525 20.1653 150.525 18.7965C150.525 17.9583 150.578 17.3429 150.685 16.9503C153.275 16.3986 155.774 15.6664 158.182 14.7539C161.596 13.4594 164.271 12.0376 166.208 10.4885ZM165.052 1.75073C166.829 1.75073 167.717 2.6208 167.717 4.36092C167.717 5.83578 166.957 7.40083 165.437 9.05607C162.195 12.6 157.342 14.982 150.878 16.2023C151.541 13.8679 152.574 11.7883 153.976 9.96327C154.104 10.0163 154.597 10.2126 155.453 10.5522C156.106 10.8386 156.566 10.9819 156.833 10.9819H156.994L157.219 10.6477L157.09 10.3612C156.812 10.2551 156.373 10.08 155.774 9.83595C155.185 9.62374 154.746 9.45927 154.457 9.34256C155.956 7.45389 157.513 5.84639 159.129 4.52008C161.365 2.67385 163.34 1.75073 165.052 1.75073ZM145.918 8.3717C147.651 8.3717 149.556 8.65287 151.632 9.21523C149.706 11.8891 148.556 14.3666 148.181 16.6479C147.111 16.8071 146.094 16.8866 145.131 16.8866C143.504 16.8866 142.124 16.6001 140.989 16.0272C139.545 15.3163 138.822 14.234 138.822 12.7804C138.822 11.2312 139.662 10.0641 141.343 9.27889C142.637 8.6741 144.162 8.3717 145.918 8.3717Z" fill="#EAE3E1"/>
<path d="M176.995 9.77228C177.455 9.77228 177.686 9.26298 177.686 8.24437C177.686 8.13826 177.466 7.93136 177.027 7.62365C176.524 7.27351 176.161 7.09843 175.936 7.09843C175.807 7.09843 175.62 7.33717 175.374 7.81464C175.139 8.29212 175.021 8.59982 175.021 8.73776C175.021 9.01363 175.283 9.26298 175.807 9.4858C176.268 9.67679 176.664 9.77228 176.995 9.77228Z" fill="#EAE3E1"/>
<path fill-rule="evenodd" clip-rule="evenodd" d="M179.629 18.2028C179.992 17.0609 180.676 15.9537 181.683 14.8812C183.266 13.1942 184.979 12.3506 186.819 12.3506C187.986 12.3506 188.917 12.7857 189.613 13.6557C190.255 14.4834 190.576 15.4807 190.576 16.6479C190.576 17.953 190.148 19.3005 189.292 20.6905C189.399 21.168 189.682 21.4067 190.142 21.4067C190.977 21.4067 191.972 20.6375 193.128 19.0989C193.711 18.2406 194.564 17.0007 195.685 15.3794C195.596 15.2115 195.552 15.003 195.552 14.7539C195.552 14.1491 195.75 13.5655 196.146 13.0032C196.52 12.462 197.002 12.1596 197.591 12.096L197.655 12.1596C197.398 12.6796 197.27 13.0456 197.27 13.2578C197.27 13.799 197.596 14.0695 198.249 14.0695C198.87 14.0695 200.207 13.6823 202.262 12.9077L202.39 13.0032C201.78 14.1279 200.892 15.8309 199.726 18.1121C199.009 19.6401 198.65 20.9558 198.65 22.0593C198.65 22.3033 198.736 22.5208 198.907 22.7118C199.067 22.9346 199.265 23.046 199.501 23.046C200.507 23.046 201.732 22.0964 203.177 20.1971C203.523 19.6872 203.944 19.0697 204.44 18.3449C204.881 17.1764 205.637 16.0483 206.708 14.9608C206.772 14.896 206.835 14.8324 206.898 14.7702C206.931 14.7226 206.964 14.6747 206.997 14.6266C207.001 14.6393 207.004 14.6519 207.007 14.6645C208.505 13.228 210.027 12.5098 211.572 12.5098C212.054 12.5098 212.643 12.653 213.338 12.9395L215.778 3.61288C215.778 3.15663 215.976 2.90728 216.372 2.86484L217.688 2.70568C217.902 2.70568 218.009 2.80118 218.009 2.99217L217.977 3.11949C217.956 3.23621 217.945 3.31579 217.945 3.35823L213.146 20.9929C212.974 21.6401 212.889 22.0752 212.889 22.298C212.889 22.8816 213.087 23.1734 213.483 23.1734C214.135 23.1734 214.911 22.6747 215.81 21.6773C216.427 21.0123 217.104 20.1381 217.843 19.0546C218.269 17.4814 219.314 15.9524 220.979 14.4674C222.467 13.1411 224.12 12.478 225.939 12.478C226.988 12.478 227.973 12.6849 228.893 13.0987L229.054 13.3215V13.3852C229.054 13.5655 228.957 13.9687 228.765 14.5948C228.679 14.8812 228.604 15.1518 228.54 15.4065L228.331 16.059L226.822 21.2157C226.694 21.672 226.63 22.0646 226.63 22.3935C226.63 22.8285 226.828 23.046 227.224 23.046C227.705 23.046 228.46 22.5102 229.487 21.4385C230.383 20.5094 231.952 18.4501 234.195 15.2606L234.672 13.7194C234.833 13.2207 235.089 12.9289 235.443 12.844L236.614 12.5416H236.823C237.016 12.5416 237.112 12.6318 237.112 12.8122C237.112 12.9183 237.101 12.9926 237.08 13.035L234.784 20.2449C238.155 15.0882 240.654 12.5098 242.281 12.5098C242.805 12.5098 243.255 12.6849 243.629 13.035C243.972 13.4064 244.143 13.852 244.143 14.3719C244.143 14.5417 244.025 15.0298 243.79 15.8362L243.035 18.4464L241.88 22.2184C241.88 22.5898 242.099 22.7755 242.538 22.7755C243.105 22.7755 243.785 22.3723 244.576 21.5659C245.347 20.7913 246.224 19.7409 247.209 18.4145C247.267 18.3327 247.324 18.2509 247.382 18.1693C247.747 17.0392 248.428 15.9432 249.424 14.8812C251.008 13.1942 252.72 12.3506 254.561 12.3506C255.728 12.3506 256.659 12.7857 257.354 13.6557C257.996 14.4834 258.317 15.4807 258.317 16.6479C258.317 17.953 257.889 19.3005 257.033 20.6905C257.14 21.168 257.424 21.4067 257.884 21.4067C258.719 21.4067 259.714 20.6375 260.87 19.0989C261.533 18.1228 262.545 16.6532 263.904 14.6903C263.968 14.7858 264 14.9184 264 15.0882C264 15.4383 263.518 16.3084 262.555 17.6983L261.335 19.4491C259.805 21.6242 258.446 22.7118 257.258 22.7118C256.776 22.7118 256.338 22.5155 255.942 22.1229C254.433 23.6508 252.886 24.4148 251.302 24.4148C250.018 24.4148 248.991 24.0222 248.22 23.237C247.45 22.4731 247.065 21.4492 247.065 20.1653C247.065 19.9329 247.077 19.7018 247.102 19.4721C244.58 22.6081 242.753 24.1761 241.623 24.1761C241.023 24.1761 240.553 23.9798 240.21 23.5872C239.836 23.2052 239.648 22.7171 239.648 22.1229C239.648 21.9744 239.836 21.2688 240.21 20.0061C240.51 19.03 240.981 17.5657 241.623 15.6134L241.751 15.1518C241.88 14.738 241.944 14.478 241.944 14.3719C241.944 14.043 241.757 13.8786 241.382 13.8786C240.751 13.8786 239.568 14.9767 237.834 17.1731C236.218 19.2209 235.036 21.0353 234.287 22.6163C234.18 22.8816 234.057 23.1415 233.918 23.3962C233.768 23.6827 233.559 23.8471 233.292 23.8896L232.088 24.1124H231.911C231.718 24.1124 231.622 24.0169 231.622 23.8259C231.622 23.6668 231.643 23.5129 231.686 23.3644L233.588 17.2219C233.071 18.0183 232.33 19.0578 231.365 20.3404C230.049 22.0805 228.829 23.2317 227.705 23.7941C227.159 24.07 226.71 24.2079 226.357 24.2079C225.244 24.2079 224.687 23.6668 224.687 22.5845C224.687 22.0221 225.003 20.786 225.634 18.8761C223.58 22.4306 221.83 24.2079 220.385 24.2079C219.444 24.2079 218.732 23.8418 218.25 23.1097C217.833 22.4943 217.624 21.6879 217.624 20.6905C217.624 20.5765 217.627 20.4627 217.634 20.3492C217.257 20.8757 216.826 21.4669 216.34 22.1229C215.131 23.5341 213.868 24.2397 212.552 24.2397C211.481 24.2397 210.946 23.741 210.946 22.7436C210.946 22.0115 211.198 20.8921 211.701 19.3854C209.86 22.6216 208.228 24.2397 206.805 24.2397C205.863 24.2397 205.141 23.9055 204.638 23.237C204.199 22.6322 203.98 21.8364 203.98 20.8497C203.98 20.5527 203.998 20.2581 204.035 19.966C203.496 20.6898 202.851 21.5308 202.101 22.489C200.978 23.6774 199.838 24.2716 198.682 24.2716C197.216 24.2716 196.483 23.5766 196.483 22.1866C196.483 20.5844 197.666 18.0644 200.031 14.6266C198.607 15.4754 197.532 15.8999 196.804 15.8999C196.489 15.8999 196.234 15.8455 196.038 15.7368C195.808 16.1977 195.4 16.8515 194.814 17.6983L193.594 19.4491C192.063 21.6242 190.704 22.7118 189.516 22.7118C189.035 22.7118 188.596 22.5155 188.2 22.1229C186.691 23.6508 185.145 24.4148 183.561 24.4148C182.277 24.4148 181.249 24.0222 180.479 23.237C179.708 22.4731 179.323 21.4492 179.323 20.1653C179.323 19.9993 179.329 19.834 179.342 19.6693C177.816 21.633 176.467 22.9389 175.294 23.5872C174.63 23.9585 173.993 24.1442 173.383 24.1442C172.763 24.1442 172.276 23.9638 171.923 23.6031C171.58 23.2317 171.409 22.7383 171.409 22.1229C171.409 21.7091 171.575 20.9929 171.907 19.9743L174.042 13.3852C174.149 13.0668 174.368 12.8759 174.7 12.8122L175.936 12.5735H176.08C176.23 12.5735 176.305 12.653 176.305 12.8122C176.305 12.9183 176.294 12.982 176.273 13.0032L173.977 20.038C173.624 21.1096 173.448 21.8364 173.448 22.2184C173.448 22.855 173.731 23.1734 174.298 23.1734C175.422 23.1734 177.054 21.7144 179.194 18.7965C179.336 18.6052 179.48 18.4072 179.629 18.2028ZM186.627 13.0668C187.815 13.0668 188.558 13.8467 188.858 15.4065C187.788 16.8283 187.253 18.2342 187.253 19.6241C187.253 20.1228 187.328 20.5207 187.478 20.8178C186.279 22.7171 185.096 23.6668 183.93 23.6668C182.485 23.6668 181.763 22.6959 181.763 20.7542C181.763 19.587 182.036 18.3721 182.582 17.1095C182.977 16.1757 183.502 15.3269 184.155 14.5629C185.011 13.5655 185.835 13.0668 186.627 13.0668ZM211.765 13.2578C212.268 13.2578 212.707 13.5178 213.081 14.0377C212.268 16.4569 211.546 18.3084 210.914 19.5923C209.705 21.9797 208.501 23.1734 207.302 23.1734C206.511 23.1734 206.115 22.6534 206.115 21.6136C206.115 19.7356 207.099 17.6028 209.068 15.2155C210.149 13.9104 211.048 13.2578 211.765 13.2578ZM225.779 13.1942C226.432 13.1942 226.935 13.3692 227.288 13.7194C226.496 15.693 225.629 17.4861 224.687 19.0989C223.157 21.7728 221.862 23.1097 220.803 23.1097C220.128 23.1097 219.791 22.6322 219.791 21.6773C219.791 20.0857 220.626 18.1281 222.296 15.8044C223.537 14.0642 224.698 13.1942 225.779 13.1942ZM254.368 13.0668C255.556 13.0668 256.3 13.8467 256.6 15.4065C255.53 16.8283 254.995 18.2342 254.995 19.6241C254.995 20.1228 255.069 20.5207 255.219 20.8178C254.021 22.7171 252.838 23.6668 251.672 23.6668C250.227 23.6668 249.505 22.6959 249.505 20.7542C249.505 19.587 249.777 18.3721 250.323 17.1095C250.719 16.1757 251.244 15.3269 251.896 14.5629C252.753 13.5655 253.577 13.0668 254.368 13.0668Z" fill="#EAE3E1"/>
<path d="M69.1613 47.886H65.8583V39.5243H64.6264V48.8792H69.1613V47.886Z" fill="#EAE3E1"/>
<path fill-rule="evenodd" clip-rule="evenodd" d="M70.4696 43.2018C70.1627 43.7655 70.0093 44.4232 70.0093 45.1748C70.0093 45.9175 70.1627 46.5796 70.4696 47.1612C70.7764 47.7428 71.1961 48.1947 71.7285 48.5168C72.261 48.8389 72.8566 49 73.5154 49C74.1562 49 74.7157 48.8613 75.194 48.5839C75.6813 48.2976 76.0468 47.9397 76.2905 47.5102V48.8792H77.5359V41.5241H76.2905V42.8663C76.0558 42.4458 75.6994 42.0968 75.2211 41.8194C74.7428 41.542 74.1787 41.4033 73.5289 41.4033C72.8701 41.4033 72.27 41.5599 71.7285 41.8731C71.1961 42.1863 70.7764 42.6292 70.4696 43.2018ZM75.9521 43.7387C76.1777 44.1503 76.2905 44.6335 76.2905 45.1882C76.2905 45.743 76.1777 46.2307 75.9521 46.6512C75.7264 47.0628 75.4196 47.3805 75.0315 47.6041C74.6525 47.8189 74.2329 47.9263 73.7726 47.9263C73.3123 47.9263 72.8927 47.8189 72.5137 47.6041C72.1346 47.3805 71.8323 47.0628 71.6067 46.6512C71.3811 46.2307 71.2682 45.7385 71.2682 45.1748C71.2682 44.6201 71.3811 44.1369 71.6067 43.7253C71.8323 43.3137 72.1346 43.0005 72.5137 42.7858C72.8927 42.571 73.3123 42.4636 73.7726 42.4636C74.2329 42.4636 74.6525 42.5755 75.0315 42.7992C75.4196 43.0139 75.7264 43.3271 75.9521 43.7387Z" fill="#EAE3E1"/>
<path d="M84.6805 41.5241L82.3792 47.7518L80.0643 41.5241H78.7377L81.6482 48.8792H83.0831L85.9936 41.5241H84.6805Z" fill="#EAE3E1"/>
<path fill-rule="evenodd" clip-rule="evenodd" d="M88.5459 48.5302C89.1145 48.8434 89.7462 49 90.4411 49C91.145 49 91.7858 48.8434 92.3633 48.5302C92.9409 48.2171 93.3967 47.7742 93.7306 47.2015C94.0735 46.6199 94.245 45.9488 94.245 45.1882C94.245 44.4277 94.078 43.7611 93.7441 43.1884C93.4192 42.6158 92.9725 42.1773 92.404 41.8731C91.8354 41.5599 91.1992 41.4033 90.4952 41.4033C89.7913 41.4033 89.1551 41.5599 88.5865 41.8731C88.018 42.1773 87.5667 42.6202 87.2328 43.2018C86.9079 43.7745 86.7455 44.4366 86.7455 45.1882C86.7455 45.9488 86.9034 46.6199 87.2193 47.2015C87.5442 47.7742 87.9864 48.2171 88.5459 48.5302ZM91.6865 47.6176C91.2984 47.8234 90.8833 47.9263 90.4411 47.9263C89.9989 47.9263 89.5928 47.8278 89.2228 47.631C88.8528 47.4252 88.5549 47.1165 88.3293 46.7049C88.1127 46.2933 88.0044 45.7877 88.0044 45.1882C88.0044 44.5977 88.1172 44.0966 88.3429 43.685C88.5685 43.2734 88.8663 42.9692 89.2363 42.7723C89.6153 42.5665 90.0305 42.4636 90.4817 42.4636C90.9239 42.4636 91.3345 42.5665 91.7136 42.7723C92.0926 42.9692 92.3995 43.2734 92.6341 43.685C92.8687 44.0966 92.9861 44.5977 92.9861 45.1882C92.9861 45.7788 92.8642 46.2799 92.6206 46.6915C92.3859 47.1031 92.0746 47.4118 91.6865 47.6176Z" fill="#EAE3E1"/>
<path d="M98.0171 41.7389C97.62 41.9715 97.3131 42.2981 97.0965 42.7187V41.5241H95.8647V48.8792H97.0965V44.8795C97.0965 43.3942 97.7869 42.6516 99.1677 42.6516H99.4926V41.3899C98.915 41.3899 98.4232 41.5062 98.0171 41.7389Z" fill="#EAE3E1"/>
<path fill-rule="evenodd" clip-rule="evenodd" d="M100.915 43.2018C100.608 43.7655 100.454 44.4232 100.454 45.1748C100.454 45.9175 100.608 46.5796 100.915 47.1612C101.221 47.7428 101.641 48.1947 102.174 48.5168C102.706 48.8389 103.302 49 103.96 49C104.601 49 105.161 48.8613 105.639 48.5839C106.126 48.2976 106.492 47.9397 106.736 47.5102V48.8792H107.981V41.5241H106.736V42.8663C106.501 42.4458 106.144 42.0968 105.666 41.8194C105.188 41.542 104.624 41.4033 103.974 41.4033C103.315 41.4033 102.715 41.5599 102.174 41.8731C101.641 42.1863 101.221 42.6292 100.915 43.2018ZM106.397 43.7387C106.623 44.1503 106.736 44.6335 106.736 45.1882C106.736 45.743 106.623 46.2307 106.397 46.6512C106.171 47.0628 105.865 47.3805 105.477 47.6041C105.098 47.8189 104.678 47.9263 104.218 47.9263C103.757 47.9263 103.338 47.8189 102.959 47.6041C102.58 47.3805 102.277 47.0628 102.052 46.6512C101.826 46.2307 101.713 45.7385 101.713 45.1748C101.713 44.6201 101.826 44.1369 102.052 43.7253C102.277 43.3137 102.58 43.0005 102.959 42.7858C103.338 42.571 103.757 42.4636 104.218 42.4636C104.678 42.4636 105.098 42.5755 105.477 42.7992C105.865 43.0139 106.171 43.3271 106.397 43.7387Z" fill="#EAE3E1"/>
<path d="M114.625 47.8726H110.983L114.598 42.5173V41.5241H109.602V42.5173H113.176L109.575 47.8726V48.8792H114.625V47.8726Z" fill="#EAE3E1"/>
<path d="M116.264 40.088C116.426 40.2491 116.625 40.3296 116.859 40.3296C117.085 40.3296 117.274 40.2491 117.428 40.088C117.59 39.9269 117.672 39.7301 117.672 39.4975C117.672 39.2648 117.59 39.068 117.428 38.9069C117.274 38.7458 117.085 38.6653 116.859 38.6653C116.625 38.6653 116.426 38.7458 116.264 38.9069C116.101 39.068 116.02 39.2648 116.02 39.4975C116.02 39.7301 116.101 39.9269 116.264 40.088Z" fill="#EAE3E1"/>
<path d="M117.455 48.8792V41.5241H116.223V48.8792H117.455Z" fill="#EAE3E1"/>
<path fill-rule="evenodd" clip-rule="evenodd" d="M120.895 48.5302C121.463 48.8434 122.095 49 122.79 49C123.494 49 124.134 48.8434 124.712 48.5302C125.29 48.2171 125.745 47.7742 126.079 47.2015C126.422 46.6199 126.594 45.9488 126.594 45.1882C126.594 44.4277 126.427 43.7611 126.093 43.1884C125.768 42.6158 125.321 42.1773 124.753 41.8731C124.184 41.5599 123.548 41.4033 122.844 41.4033C122.14 41.4033 121.504 41.5599 120.935 41.8731C120.367 42.1773 119.915 42.6202 119.582 43.2018C119.257 43.7745 119.094 44.4366 119.094 45.1882C119.094 45.9488 119.252 46.6199 119.568 47.2015C119.893 47.7742 120.335 48.2171 120.895 48.5302ZM124.035 47.6176C123.647 47.8234 123.232 47.9263 122.79 47.9263C122.348 47.9263 121.941 47.8278 121.571 47.631C121.201 47.4252 120.904 47.1165 120.678 46.7049C120.461 46.2933 120.353 45.7877 120.353 45.1882C120.353 44.5977 120.466 44.0966 120.692 43.685C120.917 43.2734 121.215 42.9692 121.585 42.7723C121.964 42.5665 122.379 42.4636 122.83 42.4636C123.273 42.4636 123.683 42.5665 124.062 42.7723C124.441 42.9692 124.748 43.2734 124.983 43.685C125.217 44.0966 125.335 44.5977 125.335 45.1882C125.335 45.7788 125.213 46.2799 124.969 46.6915C124.735 47.1031 124.423 47.4118 124.035 47.6176Z" fill="#EAE3E1"/>
<path d="M134.021 42.2086C133.461 41.6628 132.73 41.3899 131.828 41.3899C131.322 41.3899 130.858 41.4928 130.433 41.6986C130.018 41.9044 129.689 42.1952 129.445 42.571V41.5241H128.213V48.8792H129.445V44.8124C129.445 44.0429 129.635 43.4568 130.014 43.0542C130.402 42.6515 130.921 42.4502 131.571 42.4502C132.211 42.4502 132.717 42.6471 133.087 43.0408C133.457 43.4255 133.642 43.9848 133.642 44.7185V48.8792H134.86V44.544C134.86 43.524 134.58 42.7455 134.021 42.2086Z" fill="#EAE3E1"/>
<path fill-rule="evenodd" clip-rule="evenodd" d="M143.6 45.658C143.627 45.3985 143.641 45.1525 143.641 44.9198C143.641 44.2487 143.492 43.6492 143.194 43.1213C142.905 42.5844 142.49 42.1639 141.949 41.8597C141.407 41.5554 140.784 41.4033 140.081 41.4033C139.359 41.4033 138.718 41.5599 138.158 41.8731C137.608 42.1773 137.179 42.6158 136.872 43.1884C136.565 43.7611 136.412 44.4277 136.412 45.1882C136.412 45.9488 136.57 46.6199 136.886 47.2015C137.202 47.7742 137.635 48.2171 138.185 48.5302C138.745 48.8434 139.377 49 140.081 49C140.965 49 141.705 48.7808 142.301 48.3423C142.896 47.8949 143.293 47.3178 143.492 46.6109H142.165C142.021 47.0225 141.768 47.3536 141.407 47.6041C141.055 47.8457 140.613 47.9665 140.081 47.9665C139.431 47.9665 138.876 47.7652 138.416 47.3626C137.964 46.951 137.716 46.3828 137.671 45.658H143.6ZM142.057 43.4703C142.265 43.8013 142.368 44.1995 142.368 44.6648H137.685C137.748 43.9669 137.996 43.4211 138.429 43.0274C138.871 42.6337 139.404 42.4368 140.026 42.4368C140.46 42.4368 140.852 42.5263 141.204 42.7052C141.565 42.8752 141.849 43.1303 142.057 43.4703Z" fill="#EAE3E1"/>
<path fill-rule="evenodd" clip-rule="evenodd" d="M151.597 45.054L153.844 48.8792H155.319L152.95 44.9601C153.7 44.799 154.259 44.4724 154.629 43.9803C155.008 43.4882 155.198 42.92 155.198 42.2757C155.198 41.7478 155.076 41.2781 154.832 40.8665C154.588 40.4549 154.218 40.1283 153.722 39.8867C153.235 39.6451 152.635 39.5243 151.922 39.5243H148.876V48.8792H150.108V45.054H151.597ZM151.922 44.0742H150.108V40.5309H151.922C152.598 40.5309 153.099 40.683 153.424 40.9873C153.758 41.2915 153.925 41.721 153.925 42.2757C153.925 42.8216 153.758 43.26 153.424 43.5911C153.09 43.9132 152.589 44.0742 151.922 44.0742Z" fill="#EAE3E1"/>
<path fill-rule="evenodd" clip-rule="evenodd" d="M157.112 43.2018C156.805 43.7655 156.651 44.4232 156.651 45.1748C156.651 45.9175 156.805 46.5796 157.112 47.1612C157.419 47.7428 157.838 48.1947 158.371 48.5168C158.903 48.8389 159.499 49 160.158 49C160.798 49 161.358 48.8613 161.836 48.5839C162.323 48.2976 162.689 47.9397 162.933 47.5102V48.8792H164.178V41.5241H162.933V42.8663C162.698 42.4458 162.342 42.0968 161.863 41.8194C161.385 41.542 160.821 41.4033 160.171 41.4033C159.512 41.4033 158.912 41.5599 158.371 41.8731C157.838 42.1863 157.419 42.6292 157.112 43.2018ZM162.594 43.7387C162.82 44.1503 162.933 44.6335 162.933 45.1882C162.933 45.743 162.82 46.2307 162.594 46.6512C162.369 47.0628 162.062 47.3805 161.674 47.6041C161.295 47.8189 160.875 47.9263 160.415 47.9263C159.954 47.9263 159.535 47.8189 159.156 47.6041C158.777 47.3805 158.474 47.0628 158.249 46.6512C158.023 46.2307 157.91 45.7385 157.91 45.1748C157.91 44.6201 158.023 44.1369 158.249 43.7253C158.474 43.3137 158.777 43.0005 159.156 42.7858C159.535 42.571 159.954 42.4636 160.415 42.4636C160.875 42.4636 161.295 42.5755 161.674 42.7992C162.062 43.0139 162.369 43.3271 162.594 43.7387Z" fill="#EAE3E1"/>
<path fill-rule="evenodd" clip-rule="evenodd" d="M166.26 43.2018C165.953 43.7655 165.8 44.4232 165.8 45.1748C165.8 45.9175 165.953 46.5796 166.26 47.1612C166.567 47.7428 166.986 48.1947 167.519 48.5168C168.06 48.8389 168.66 49 169.319 49C169.96 49 170.519 48.8613 170.998 48.5839C171.476 48.2976 171.837 47.9352 172.081 47.4968V48.8792H173.326V38.9472H172.081V42.8395C171.819 42.41 171.44 42.0655 170.944 41.806C170.447 41.5375 169.91 41.4033 169.333 41.4033C168.665 41.4033 168.06 41.5599 167.519 41.8731C166.986 42.1863 166.567 42.6292 166.26 43.2018ZM171.742 43.7387C171.968 44.1503 172.081 44.6335 172.081 45.1882C172.081 45.743 171.968 46.2307 171.742 46.6512C171.517 47.0628 171.21 47.3805 170.822 47.6041C170.443 47.8189 170.023 47.9263 169.563 47.9263C169.103 47.9263 168.683 47.8189 168.304 47.6041C167.925 47.3805 167.622 47.0628 167.397 46.6512C167.171 46.2307 167.058 45.7385 167.058 45.1748C167.058 44.6201 167.171 44.1369 167.397 43.7253C167.622 43.3137 167.925 43.0005 168.304 42.7858C168.683 42.571 169.103 42.4636 169.563 42.4636C170.023 42.4636 170.443 42.5755 170.822 42.7992C171.21 43.0139 171.517 43.3271 171.742 43.7387Z" fill="#EAE3E1"/>
<path d="M175.448 40.088C175.611 40.2491 175.809 40.3296 176.044 40.3296C176.27 40.3296 176.459 40.2491 176.613 40.088C176.775 39.9269 176.856 39.7301 176.856 39.4975C176.856 39.2648 176.775 39.068 176.613 38.9069C176.459 38.7458 176.27 38.6653 176.044 38.6653C175.809 38.6653 175.611 38.7458 175.448 38.9069C175.286 39.068 175.205 39.2648 175.205 39.4975C175.205 39.7301 175.286 39.9269 175.448 40.088Z" fill="#EAE3E1"/>
<path d="M176.64 48.8792V41.5241H175.408V48.8792H176.64Z" fill="#EAE3E1"/>
<path d="M178.739 43.2018C178.432 43.7655 178.279 44.4277 178.279 45.1882C178.279 45.9578 178.432 46.6288 178.739 47.2015C179.046 47.7742 179.47 48.2171 180.012 48.5302C180.562 48.8434 181.189 49 181.893 49C182.787 49 183.531 48.7763 184.127 48.3289C184.723 47.8726 185.12 47.2686 185.318 46.517H183.992C183.856 46.9823 183.608 47.3402 183.247 47.5907C182.886 47.8413 182.435 47.9665 181.893 47.9665C181.189 47.9665 180.621 47.7249 180.188 47.2418C179.754 46.7586 179.538 46.0741 179.538 45.1882C179.538 44.3114 179.754 43.6358 180.188 43.1616C180.621 42.6784 181.189 42.4368 181.893 42.4368C182.435 42.4368 182.886 42.5665 183.247 42.826C183.617 43.0855 183.865 43.439 183.992 43.8863H185.318C185.129 43.1079 184.736 42.4994 184.14 42.061C183.554 41.6226 182.805 41.4033 181.893 41.4033C181.189 41.4033 180.562 41.5599 180.012 41.8731C179.47 42.1863 179.046 42.6292 178.739 43.2018Z" fill="#EAE3E1"/>
<path fill-rule="evenodd" clip-rule="evenodd" d="M186.962 43.2018C186.655 43.7655 186.502 44.4232 186.502 45.1748C186.502 45.9175 186.655 46.5796 186.962 47.1612C187.269 47.7428 187.688 48.1947 188.221 48.5168C188.753 48.8389 189.349 49 190.008 49C190.648 49 191.208 48.8613 191.686 48.5839C192.174 48.2976 192.539 47.9397 192.783 47.5102V48.8792H194.028V41.5241H192.783V42.8663C192.548 42.4458 192.192 42.0968 191.713 41.8194C191.235 41.542 190.671 41.4033 190.021 41.4033C189.362 41.4033 188.762 41.5599 188.221 41.8731C187.688 42.1863 187.269 42.6292 186.962 43.2018ZM192.444 43.7387C192.67 44.1503 192.783 44.6335 192.783 45.1882C192.783 45.743 192.67 46.2307 192.444 46.6512C192.219 47.0628 191.912 47.3805 191.524 47.6041C191.145 47.8189 190.725 47.9263 190.265 47.9263C189.805 47.9263 189.385 47.8189 189.006 47.6041C188.627 47.3805 188.325 47.0628 188.099 46.6512C187.873 46.2307 187.761 45.7385 187.761 45.1748C187.761 44.6201 187.873 44.1369 188.099 43.7253C188.325 43.3137 188.627 43.0005 189.006 42.7858C189.385 42.571 189.805 42.4636 190.265 42.4636C190.725 42.4636 191.145 42.5755 191.524 42.7992C191.912 43.0139 192.219 43.3271 192.444 43.7387Z" fill="#EAE3E1"/>
</svg>
