<svg width="1440" height="484" viewBox="0 0 1440 484" fill="none" xmlns="http://www.w3.org/2000/svg">
<mask id="mask0_33_629" style="mask-type:luminance" maskUnits="userSpaceOnUse" x="-16" y="-217" width="1456" height="971">
<path d="M1440 -217H-16V753.667H1440V-217Z" fill="white"/>
</mask>
<g mask="url(#mask0_33_629)">
<path d="M-64.921 49.953C4.3652 18.3093 58.8584 -42.5127 135.192 -58.8975C154.566 -63.052 174.814 -64.0809 194.286 -59.9653C212.185 -56.1797 227.968 -47.8319 242.664 -37.1546C256.195 -27.312 268.794 -16.13 283.102 -7.35514C299.195 2.52625 316.9 10.1363 334.237 17.4939C370.248 32.7528 406.881 46.148 445.339 53.6998C483.894 61.271 523.458 63.7947 562.654 60.8633C642.967 54.8646 719.222 25.1622 799.302 17.7657C867.657 11.4564 943.077 22.289 993.125 73.482C1017.68 98.6028 1034.34 129.975 1052.08 159.949C1060.63 174.373 1069.46 188.661 1079.57 202.037C1089.42 215.044 1100.93 226.459 1111.74 238.612C1126.07 254.705 1136.86 271.983 1139.29 293.804C1141.44 313.178 1138.18 332.572 1139.06 351.966C1139.73 366.779 1143.99 380.62 1150.92 393.647C1154.94 401.198 1159.73 408.265 1163.38 416.011C1167.4 424.553 1170.6 433.463 1174.29 442.141C1183.98 464.913 1206.71 500.575 1236.78 488.675C1264.23 477.823 1269.2 440.569 1271.84 415.292C1275.43 380.95 1274.85 343.094 1297.49 314.673C1313.64 294.406 1337.85 283.884 1362.39 277.652C1410.88 265.363 1465.76 268.295 1510.04 242.359C1519.98 236.535 1528.8 229.158 1536.21 220.344C1536.81 219.645 1535.79 218.616 1535.2 219.334C1469.39 297.434 1308.26 232.652 1278.37 351.733C1269.9 385.435 1274.27 421.582 1262.85 454.624C1257.24 470.873 1245.05 489.102 1225.93 489.354C1206.24 489.626 1190.89 471.358 1182.27 455.633C1173.77 440.103 1169.24 422.747 1160.53 407.314C1151.42 391.162 1142.65 376 1140.84 357.111C1139 337.969 1142.41 318.711 1141.19 299.531C1140.12 282.758 1135.21 267.479 1125.64 253.618C1116.09 239.796 1103.74 228.226 1092.64 215.704C1080.7 202.251 1070.55 187.399 1061.11 172.121C1043.95 144.321 1029.08 114.968 1008.79 89.2262C988.602 63.5812 962.976 43.9737 932.633 31.821C902.407 19.7071 869.598 14.9508 837.158 14.6596C759.68 13.9413 685.676 40.4599 610.081 53.4086C528.875 67.3085 446.601 59.7568 369.627 30.1514C333.499 16.2515 296.264 2.06033 265.28 -21.6045C251.982 -31.7577 239.15 -42.7262 224.318 -50.6274C210.224 -58.1404 194.674 -62.3919 178.775 -63.6538C103.47 -69.6525 42.1435 -16.7318 -16.9312 21.4737C-32.5784 31.588 -48.6914 40.9452 -65.6587 48.6912C-66.4935 49.0794 -65.7752 50.3219 -64.9404 49.9336L-64.921 49.953Z" fill="#685649" fill-opacity="0.05"/>
<path d="M-57.1366 23.4343C2.44289 -21.6823 66.5651 -69.5749 143.753 -75.6707C180.929 -78.6021 215.776 -69.1673 248.876 -52.7048C279.529 -37.4459 307.989 -18.1684 338.954 -3.51136C474.362 60.5332 629.824 31.0638 767.328 -9.62658C835.78 -29.8941 912.074 -39.5619 978.021 -5.53036C1010.23 11.0874 1037.1 36.2277 1063.5 60.6303C1076.43 72.5889 1089.26 84.994 1099.1 99.6899C1108.3 113.454 1113.43 128.577 1115.95 144.865C1120.19 172.14 1118.19 203.726 1135.79 226.847C1145.75 239.932 1160.86 246.921 1173.2 257.307C1186.19 268.236 1193.57 283.165 1197.16 299.55C1200.65 315.547 1200.96 332.068 1201.55 348.375C1201.9 358.373 1200.25 372.719 1207.12 381.106C1217.93 394.326 1237.07 377.456 1243.83 368.254C1253.3 355.344 1256.49 338.998 1262.25 324.341C1268.64 308.053 1278.03 293.105 1289.26 279.729C1311.23 253.579 1339.48 233.72 1368.77 216.597C1426.43 182.934 1492.22 156.571 1533.01 101.01C1542 88.7602 1549.18 75.4232 1554.36 61.1544C1554.67 60.2809 1553.3 59.912 1552.99 60.7662C1504.36 194.679 1315.17 191.379 1261.81 321.604C1255.19 337.756 1252.08 356.334 1240.61 370.021C1234.65 377.126 1222.96 387.473 1212.81 383.532C1199.97 378.562 1203.2 354.218 1202.81 343.385C1202.28 328.593 1201.72 313.664 1198.54 299.162C1195.66 286.077 1190.44 273.4 1181.47 263.286C1170.87 251.347 1155.96 244.669 1144.28 233.972C1120.07 211.782 1121.97 176.78 1117.66 146.864C1115.51 131.897 1111.53 117.589 1103.8 104.485C1095.9 91.1092 1085.3 79.5389 1074.19 68.7645C1049.93 45.1967 1024.38 21.4154 995.804 3.128C938.496 -33.5438 869.074 -35.3687 804.311 -21.0028C768.823 -13.121 734.267 -1.18177 698.935 7.45716C660.089 16.9697 620.719 24.6574 580.941 28.9671C508.743 36.7907 434.157 32.1315 365.763 6.33118C303.233 -17.2754 250.021 -67.1288 182.249 -76.156C110.362 -85.7462 42.6867 -50.3557 -14.1361 -10.1896C-28.9679 0.293648 -43.4502 11.2622 -57.9326 22.2113C-58.6509 22.7549 -57.9326 24.0167 -57.2143 23.4538L-57.1366 23.4343Z" fill="#685649" fill-opacity="0.05"/>
<path d="M-56.7102 -9.7431C-15.3986 -58.8394 42.3367 -93.3369 105.411 -105.548C174.037 -118.827 245.361 -105.101 305.193 -69.4585C333.42 -52.6466 359.57 -32.5149 388.166 -16.2854C416.354 -0.288803 446.639 10.175 478.846 14.1547C547.18 22.6189 615.651 5.20518 680.336 -15.2177C749.448 -37.0576 818.889 -63.2851 892.117 -66.0029C925.352 -67.2454 958.627 -60.1595 989.94 -49.3851C1019.37 -39.2514 1048.86 -26.0115 1072.49 -5.37511C1117.14 33.6263 1144.04 91.4586 1146.47 150.397C1147.44 173.732 1148.55 201.338 1172.19 213.258C1185.41 219.936 1199.58 222.421 1207.08 236.67C1212.01 246.028 1214.16 258.083 1222.69 265.111C1240.33 279.632 1258.23 259.248 1268.09 245.931C1286.69 220.79 1307.25 194.776 1333.56 177.304C1383.25 144.282 1455.03 141.506 1488.67 86.2947C1494.96 75.9668 1498.67 64.5517 1499.52 52.4766C1499.58 51.5448 1498.14 51.5642 1498.08 52.4766C1495.85 84.3145 1472.32 108.581 1446.27 124.384C1418.86 141.001 1387.27 148.786 1358.31 162.104C1327.73 176.178 1305.23 197.863 1283.84 223.392C1276.13 232.594 1269.41 242.475 1261.8 251.735C1254.02 261.228 1242.99 271.925 1229.64 267.363C1216.14 262.762 1213.95 246.047 1207.87 235.078C1202.09 224.634 1192.6 220.188 1181.92 215.898C1166.66 209.763 1156.25 201.183 1151.79 184.817C1147.96 170.82 1148.39 156.105 1147.56 141.739C1144.39 87.4206 1116.85 33.2574 1076.93 -3.3561C1056.53 -22.0706 1032.01 -34.631 1006.44 -44.823C977.166 -56.4904 946.086 -64.8381 914.578 -67.0901C846.204 -71.9628 777.287 -48.0844 713.242 -27.3316C646.615 -5.74395 578.397 16.3484 507.5 14.7565C472.128 13.9606 437.204 6.68057 405.327 -8.86951C375.761 -23.2936 349.339 -43.0952 321.792 -60.8584C294.458 -78.4857 265.706 -93.0263 234.237 -101.704C202.846 -110.362 169.94 -113.643 137.443 -111.255C77.2418 -106.829 19.3125 -82.2713 -26.2701 -42.7846C-37.6074 -32.9809 -48.0712 -22.2453 -57.7196 -10.772C-58.302 -10.0731 -57.2926 -9.04421 -56.7102 -9.7625V-9.7431Z" fill="#685649" fill-opacity="0.05"/>
<path d="M915.413 -296.963C920.266 -256.079 913.336 -214.088 895.922 -176.775C891.593 -167.515 886.642 -158.546 881.071 -149.966C875.499 -141.385 868.957 -133.678 862.861 -125.505C857.891 -118.846 854.047 -110.576 857.969 -102.442C861.832 -94.424 870.529 -90.4054 878.974 -89.3377C890.04 -87.9593 901.649 -89.8619 912.734 -90.4831C924.518 -91.1431 936.321 -91.5508 948.124 -91.5314C971.692 -91.4926 995.357 -89.7066 1018.34 -84.3291C1055.11 -75.729 1088.7 -57.0145 1115.8 -30.7483C1141.85 -5.53033 1161.75 26.1716 1172.43 60.8827C1175.09 69.5022 1177.16 78.2965 1178.62 87.1877C1180.11 96.312 1180.79 105.553 1181.84 114.735C1183.74 131.256 1186.89 149.407 1199.51 161.386C1205.89 167.462 1214.18 170.801 1221.15 176.062C1228.88 181.925 1231.56 189.768 1233.27 198.97C1234.53 205.745 1235.42 213.452 1240.14 218.849C1245.01 224.421 1252.56 225.333 1259.15 222.44C1278.54 213.879 1276.21 189.36 1286.11 173.771C1295.86 158.435 1313.76 151.077 1330.14 145.195C1346.91 139.157 1363.47 133.45 1379.02 124.558C1394.67 115.609 1409.11 104.563 1421.95 91.9246C1447.42 66.8426 1466.69 35.3736 1476.83 1.0702C1479.33 -7.41342 1481.23 -16.033 1482.59 -24.769C1482.73 -25.6814 1481.35 -26.0697 1481.21 -25.1572C1475.68 10.6216 1460.19 44.4784 1437.51 72.6083C1414.86 100.699 1385.06 123.219 1351.3 136.148C1335.36 142.244 1318.49 146.554 1303.76 155.406C1297.04 159.444 1290.91 164.511 1286.3 170.917C1280.6 178.896 1278.5 188.292 1275.76 197.533C1272.83 207.356 1268.19 217.141 1258.14 221.295C1248.97 225.1 1240.72 220.15 1237.58 211.258C1234.96 203.862 1234.82 195.825 1232.2 188.409C1229.56 180.935 1224.08 175.946 1217.5 171.81C1209.6 166.821 1201.47 162.647 1195.78 154.94C1190.48 147.757 1187.59 139.138 1185.74 130.499C1182.05 113.163 1182.04 95.2831 1178.35 77.9276C1171.13 43.9349 1155.01 12.0581 1132.78 -14.5575C1110.46 -41.3091 1081.79 -62.8579 1049.46 -76.0202C1008.69 -92.5991 963.81 -94.3075 920.402 -92.3079C909.123 -91.7838 897.805 -90.5025 886.506 -90.4054C876.004 -90.3084 863.055 -93.1815 858.784 -104.189C854.688 -114.73 863.599 -124.146 869.675 -131.698C875.79 -139.327 881.381 -147.364 886.409 -155.731C906.638 -189.433 917.801 -228.551 918.402 -267.863C918.558 -277.569 918.034 -287.295 916.888 -296.924C916.772 -297.837 915.335 -297.837 915.452 -296.924L915.413 -296.963Z" fill="#685649" fill-opacity="0.05"/>
<path d="M1061.15 -270.561C1024.11 -268.697 983.496 -266.096 954.783 -239.616C943.038 -228.784 934.457 -214.592 932.38 -198.576C931.196 -189.433 931.759 -180.173 930.555 -171.029C929.332 -161.73 925.702 -154.314 919.121 -147.655C914.248 -142.705 908.152 -137.657 906.599 -130.513C905.143 -123.777 908.502 -117.487 913.841 -113.468C929.41 -101.782 949.872 -113.08 966.412 -116.206C1005.14 -123.525 1044.74 -113.158 1079.65 -96.3847C1097.18 -87.9593 1113.86 -77.8255 1129.79 -66.6823C1146.1 -55.2478 1161.88 -42.9009 1175.96 -28.7874C1203.88 -0.774017 1225.62 36.4219 1224.67 77.0735C1224.24 95.1085 1217.31 115.221 1227.66 131.8C1231.6 138.109 1237.91 142.555 1245.34 143.486C1252.64 144.399 1259.98 142.011 1266.23 138.381C1281.41 129.567 1288.69 114.036 1297.66 99.7288C1302.46 92.0994 1307.91 84.7417 1315.29 79.4225C1322.69 74.1226 1331.46 71.3271 1340.27 69.444C1357.51 65.7749 1375.18 64.8043 1391.04 56.3983C1406.03 48.4388 1418.16 36.0919 1428.55 22.8714C1440.27 7.96198 1450.27 -8.28696 1460.64 -24.1477C1472.96 -43.0174 1485.27 -61.8872 1497.6 -80.7375C1503.54 -89.8424 1509.48 -98.9278 1515.42 -108.033C1515.93 -108.809 1514.68 -109.527 1514.18 -108.751C1490.67 -72.7587 1467.39 -36.6304 1443.65 -0.793427C1434.16 13.5336 1424.1 27.7636 1411.56 39.6251C1398.61 51.8555 1383.57 59.9315 1366.07 63.4453C1349.69 66.7455 1331.95 67.425 1317.31 76.3746C1302.84 85.2271 1295.51 100.991 1286.87 114.852C1278.38 128.441 1264.37 143.467 1246.74 142.205C1237.77 141.565 1230.69 135.585 1227 127.587C1222.88 118.618 1223.04 108.62 1224.01 98.9911C1225.04 89.0515 1226.45 79.2672 1225.97 69.2305C1225.52 60.1062 1223.95 51.0402 1221.46 42.2654C1216.38 24.2692 1207.51 7.43784 1196.32 -7.51044C1174 -37.3293 1143.15 -60.8 1111.72 -80.3104C1080.43 -99.7238 1045.5 -115.39 1008.54 -119.195C990.368 -121.059 971.964 -119.778 954.356 -114.847C944.688 -112.148 934.147 -108.052 923.974 -110.343C915.995 -112.129 907.376 -118.555 907.628 -127.524C907.861 -135.774 915.064 -141.501 920.383 -146.937C926.013 -152.683 929.74 -159.07 931.293 -167.01C932.924 -175.319 932.633 -183.861 933.176 -192.287C933.72 -201.042 935.564 -209.429 939.485 -217.31C956.569 -251.711 996.192 -263.631 1031.64 -267.125C1041.44 -268.096 1051.27 -268.6 1061.09 -269.086C1062 -269.125 1062.02 -270.561 1061.09 -270.522L1061.15 -270.561Z" fill="#685649" fill-opacity="0.05"/>
<path d="M1213.43 -249.265C1176.25 -247.789 1139 -246.217 1102.09 -241.208C1065.65 -236.258 1029.45 -227.871 995.745 -212.884C981.069 -206.361 964.82 -198.907 955.463 -185.201C948.086 -174.388 946.397 -157.692 956.22 -147.733C967.13 -136.667 984.389 -140.395 997.823 -143.423C1006.5 -145.384 1015.1 -147.151 1024.01 -147.772C1032.98 -148.393 1041.99 -148.121 1050.9 -147.073C1087.75 -142.763 1122.15 -125.874 1152.95 -105.956C1167.83 -96.346 1182.35 -85.9404 1195.84 -74.4477C1208.67 -63.518 1220.67 -51.3459 1229.91 -37.1935C1234.53 -30.1077 1238.45 -22.5559 1241.3 -14.577C1244.39 -5.99632 1245.85 2.89498 1247.46 11.8251C1250.18 26.7152 1255.19 44.3813 1270.41 51.0595C1285.31 57.6018 1301.76 48.9628 1312.94 39.1397C1325.79 27.8217 1336.1 12.854 1352.76 6.75828C1368.21 1.08958 1386.01 2.35143 1400.26 -6.69517C1407.11 -11.0438 1412.34 -17.4308 1416.84 -24.0895C1422.2 -32.0296 1427.01 -40.3579 1432.02 -48.5115C1453.9 -84.1544 1475.78 -119.797 1497.68 -155.44C1503 -164.118 1508.33 -172.796 1513.65 -181.454C1514.14 -182.25 1512.9 -182.968 1512.41 -182.172C1491.12 -147.481 1469.8 -112.77 1448.5 -78.078C1438.21 -61.3243 1428.22 -44.3765 1417.6 -27.8363C1412.9 -20.5369 1407.6 -13.2957 1400.28 -8.40356C1393.21 -3.68612 1384.85 -1.6477 1376.6 -0.0946426C1368.46 1.43902 1360.17 2.54556 1352.37 5.39931C1345.11 8.05894 1338.78 12.4076 1333.03 17.5133C1320.51 28.6565 1310.34 43.0223 1294.21 49.3123C1286.17 52.4378 1277.1 53.1367 1269.28 48.9628C1262.21 45.1967 1257.32 38.3826 1254.18 31.1802C1250.47 22.716 1249.19 13.417 1247.56 4.38984C1246.02 -4.05497 1243.94 -12.2862 1240.59 -20.1875C1228.2 -49.4434 1203.43 -71.4192 1178.42 -89.959C1150.06 -110.984 1119.19 -129.892 1085.43 -140.802C1069.24 -146.044 1052.34 -149.306 1035.29 -149.519C1026.83 -149.636 1018.36 -148.956 1010.03 -147.5C1002.09 -146.102 994.328 -143.831 986.349 -142.589C978.564 -141.365 969.984 -140.919 962.762 -144.646C955.637 -148.335 951.502 -155.479 950.881 -163.38C949.522 -180.697 962.413 -193.413 976.235 -201.527C991.474 -210.496 1008.36 -217.116 1025.12 -222.649C1042.24 -228.298 1059.79 -232.569 1077.51 -235.831C1113.51 -242.451 1150.08 -244.994 1186.6 -246.683C1195.53 -247.091 1204.46 -247.459 1213.39 -247.809C1214.3 -247.848 1214.32 -249.284 1213.39 -249.245L1213.43 -249.265Z" fill="#685649" fill-opacity="0.05"/>
<path d="M1078.82 -229.23C1071.52 -217.815 1056.8 -215.466 1044.71 -212.244C1034.03 -209.409 1021.45 -203.43 1017.37 -192.306C1012.91 -180.192 1023.22 -169.787 1034.36 -167.108C1042.07 -165.244 1050.14 -166.389 1057.87 -167.496C1063.71 -168.331 1069.57 -169.01 1075.48 -169.34C1097.61 -170.544 1119.95 -167.806 1141.35 -162.06C1163.44 -156.12 1184.77 -146.879 1203.8 -134.105C1222.12 -121.797 1238.37 -105.975 1249.57 -86.8334C1255.13 -77.3403 1259.38 -67.09 1262.08 -56.4127C1265.05 -44.6482 1265.2 -32.282 1268.91 -20.7116C1272.37 -9.97603 1280.31 -0.832367 1292.05 0.565399C1302.32 1.78844 1311.1 -4.81207 1318.12 -11.4903C1322.08 -15.2759 1325.77 -19.3527 1329.62 -23.2547C1333.93 -27.6227 1338.57 -31.4083 1343.75 -34.728C1356.39 -42.7846 1370.54 -47.9097 1384.17 -53.9861C1397.47 -59.9071 1409.79 -67.1871 1420.68 -76.9132C1431.21 -86.3092 1440.23 -97.336 1447.84 -109.198C1465.1 -136.007 1474.87 -166.7 1482.83 -197.354C1484.9 -205.313 1486.84 -213.311 1488.81 -221.29C1489.02 -222.183 1487.64 -222.571 1487.43 -221.678C1479.66 -189.899 1471.82 -157.712 1457.06 -128.32C1444.41 -103.121 1426.41 -79.767 1402.12 -64.8575C1378.73 -50.4722 1349.73 -45.2695 1329.75 -25.4679C1322.22 -18.0131 1315.39 -9.16069 1305.97 -3.95792C1301.35 -1.39536 1296.13 -0.114059 1290.87 -1.08472C1284.98 -2.17186 1279.37 -5.60805 1275.71 -10.3255C1268.11 -20.0904 1267.51 -33.7574 1265.71 -45.5024C1264.1 -56.1215 1261.07 -66.4494 1256.64 -76.2531C1247.94 -95.55 1234.1 -112.168 1217.78 -125.524C1200.93 -139.308 1181.49 -149.81 1161.09 -157.323C1140.51 -164.894 1118.79 -169.534 1096.89 -170.777C1086.56 -171.359 1076.18 -171.184 1065.89 -170.058C1051.83 -168.525 1034.48 -163.613 1022.94 -174.834C1018.07 -179.571 1016.32 -186.618 1019.1 -192.927C1021.62 -198.674 1026.88 -202.925 1032.24 -205.915C1043.19 -212.049 1056.18 -212.535 1067.46 -217.932C1072.54 -220.358 1076.97 -223.794 1080.04 -228.59C1080.54 -229.366 1079.3 -230.084 1078.8 -229.308L1078.82 -229.23Z" fill="#685649" fill-opacity="0.05"/>
<path d="M1481.35 271.168C1456.29 291.474 1422.66 291.63 1392.38 297.143C1365.65 302.016 1341.98 312.46 1325.81 335.077C1294.15 379.339 1297.06 438.744 1286.63 489.878C1283.3 506.205 1278.11 524.512 1263.07 533.869C1247.17 543.731 1227.06 538.897 1211.84 530.161C1196.95 521.6 1183.65 508.36 1171.75 496.091C1157.92 481.822 1148.04 466.427 1141.13 447.79C1127.91 412.245 1122.26 374.253 1110.54 338.163C1098.97 302.501 1084.72 266.703 1064.68 234.884C1055.13 219.742 1044.59 205.26 1035.14 190.059C1025.91 175.247 1019.35 159.075 1010.15 144.282C994.658 119.356 973.556 98.2145 949.425 81.6355C892.719 42.6729 823.161 31.8403 755.68 38.6155C718.018 42.4011 680.997 51.1954 644.946 62.591C607.634 74.3943 571.564 90.3327 533.456 99.5346C458.365 117.667 382.828 94.856 319.501 53.5444C271.104 21.9589 222.454 -20.9834 162.506 -26.6521C129.154 -29.797 98.7329 -18.2655 71.03 -0.463511C39.6193 19.7069 10.1498 43.5465 -17.6307 68.4344C-31.7247 81.0531 -45.3529 94.1765 -58.5734 107.708C-59.214 108.368 -58.2045 109.377 -57.5639 108.717C-29.8416 80.3348 -0.216892 53.8744 31.2521 29.7242C60.5663 7.22417 92.54 -17.5666 129.872 -24.0507C194.13 -35.194 250.487 8.23368 300.243 42.3235C356.678 81.0143 421.324 111.61 491.542 107.475C529.864 105.223 566.206 91.8663 601.985 78.8982C638.89 65.503 676.26 53.4667 714.873 46.0508C786.877 32.2091 863.968 34.5193 929.313 70.8417C957.676 86.6053 983.068 108.096 1001.98 134.576C1011.55 147.971 1017.97 162.628 1025.82 176.994C1034.59 193.049 1045.23 207.977 1055.36 223.178C1076.97 255.579 1092.85 290.872 1105.53 327.641C1118.01 363.828 1124.44 401.548 1136.2 437.87C1141.33 453.731 1147.69 469.145 1157.92 482.424C1168.41 496.013 1181.26 507.642 1194.19 518.843C1213.14 535.247 1243.38 550.7 1266.7 533.093C1288.19 516.863 1289.88 482.676 1293.18 458.177C1296.89 430.648 1299.93 402.751 1308.11 376.097C1316.43 348.918 1331.19 322.458 1357.51 309.257C1385.47 295.26 1417.93 296.949 1447.61 289.048C1460.29 285.67 1472.13 280.447 1482.38 272.139C1483.1 271.556 1482.07 270.547 1481.37 271.129L1481.35 271.168Z" fill="#685649" fill-opacity="0.05"/>
<path d="M-32.2878 139.196C-11.2049 81.9267 38.9009 39.062 96.4808 20.9494C124.844 12.0193 155.206 9.02962 184.656 13.4947C216.727 18.348 245.963 32.7721 272.948 50.2829C327.558 85.7123 376.499 135.061 442.485 148.32C520.876 164.064 598.141 130.149 669.97 103.223C742.227 76.1415 825.335 51.4089 899.377 86.3918C958.569 114.347 997.24 171.888 1023.35 229.856C1052.1 293.726 1066.41 362.857 1092.73 427.678C1105.68 459.574 1121.54 490.48 1142.74 517.737C1161.83 542.294 1187.34 565.862 1218.82 572.191C1245.25 577.51 1270.58 566.736 1286.54 545.42C1303.68 522.512 1310.47 493.218 1317.77 466.097C1326.7 432.939 1338.43 401.062 1359.03 373.185C1381.02 343.385 1411.66 320.245 1447.63 310.363C1465.78 305.374 1484.67 304.151 1503.27 307.005C1504.18 307.141 1504.57 305.762 1503.66 305.627C1434.14 294.969 1372.13 340.512 1340.78 399.645C1325.62 428.241 1318.78 459.225 1309.7 489.995C1301.52 517.717 1290.25 549.244 1263.53 564.212C1228.74 583.684 1189.47 563.843 1163.52 538.955C1137.46 513.99 1118.48 481.453 1103.49 448.916C1073.73 384.289 1059.46 314.052 1032.79 248.26C1009.72 191.379 976.662 134.207 924.712 99.1851C896.757 80.3348 864.336 69.8128 830.693 67.9297C791.498 65.736 752.457 74.2972 715.261 85.9647C637.608 110.309 562.032 152.417 478.516 150.747C440.737 149.99 405.871 138.109 373.664 118.851C345.107 101.787 319.229 80.7425 292.109 61.5815C265.94 43.0806 238.023 25.7639 206.962 16.892C180.036 9.20434 151.459 8.21426 123.912 12.8929C68.1956 22.3472 15.7602 54.7674 -15.34 102.272C-22.8335 113.726 -28.9293 125.995 -33.6662 138.847C-33.9768 139.72 -32.5984 140.089 -32.2878 139.235V139.196Z" fill="#685649" fill-opacity="0.05"/>
<path d="M1483.18 335.465C1461.2 328.767 1437.9 334.747 1418.99 346.919C1398.32 360.256 1383.86 380.057 1373.68 402.189C1352.35 448.645 1348.91 502.167 1320.71 545.673C1314.14 555.806 1306.26 565.105 1296.94 572.793C1286.15 581.723 1273.51 588.033 1262.35 596.458C1253.09 603.427 1244.7 612.241 1240.59 623.268C1236.41 634.43 1238.33 646.059 1244.35 656.135C1250.64 666.676 1259.98 675.063 1268.77 683.469C1279.2 693.447 1289.68 703.387 1300.5 712.957C1320.98 731.051 1342.78 747.455 1366.71 760.714C1412.57 786.126 1464.42 800.725 1516.82 802.802C1523.23 803.055 1529.63 803.113 1536.04 802.996C1536.97 802.996 1536.97 801.54 1536.04 801.56C1484.09 802.511 1432.1 791.057 1385.22 768.654C1361.16 757.142 1338.7 742.718 1318.01 725.945C1307.25 717.228 1296.9 707.988 1286.77 698.553C1277.04 689.487 1267.16 680.459 1257.92 670.889C1249.44 662.133 1241.09 651.65 1239.83 639.07C1238.59 626.568 1244.99 614.959 1253.4 606.184C1262.54 596.633 1274.27 590.187 1285.26 583.004C1295.39 576.365 1304.57 568.736 1312.36 559.417C1344.29 521.231 1350.45 469.883 1366.35 424.359C1374.64 400.597 1386.01 377.165 1404.69 359.829C1421.17 344.512 1443.16 333.33 1466.09 334.048C1471.76 334.223 1477.33 335.193 1482.75 336.843C1483.64 337.115 1484.01 335.737 1483.14 335.465H1483.18Z" fill="#685649" fill-opacity="0.05"/>
<path d="M1467.63 378.466C1432.74 386.833 1411 419.7 1399.83 451.634C1386.5 489.82 1383.62 531.656 1362.93 567.124C1353.84 582.694 1341.61 595.973 1325.69 604.65C1313.33 611.387 1296.54 617.483 1291.78 632.217C1286.23 649.495 1301.54 664.424 1313.93 673.898C1330.35 686.478 1347.67 698.009 1365.28 708.842C1400.49 730.488 1437.69 748.911 1476.26 763.781C1481.04 765.626 1485.83 767.412 1490.65 769.14C1491.52 769.45 1491.89 768.072 1491.04 767.761C1452.58 753.919 1415.4 736.603 1380.09 716.044C1362.6 705.872 1345.57 694.903 1329.07 683.197C1321.11 677.547 1312.94 671.956 1305.87 665.181C1299.51 659.066 1293.35 651.378 1292.25 642.312C1290.11 624.84 1307.21 615.891 1320.28 609.135C1327.56 605.369 1334.62 601.408 1340.93 596.128C1347.36 590.77 1352.97 584.48 1357.84 577.685C1380.71 545.809 1385.68 506.128 1395.91 469.242C1400.98 450.955 1407.58 433.017 1418.28 417.234C1427.79 403.218 1440.43 390.832 1456.05 383.882C1459.92 382.174 1463.94 380.834 1468.03 379.844C1468.93 379.63 1468.56 378.252 1467.64 378.466H1467.63Z" fill="#685649" fill-opacity="0.05"/>
<path d="M1468.4 433.347C1469.8 457.711 1465.65 482.249 1456.7 504.943C1447.73 527.696 1433.9 548.585 1416.18 565.435C1397.91 582.81 1372.81 596.244 1365.59 622.181C1364.02 627.849 1363.47 633.848 1364.46 639.672C1365.43 645.341 1367.94 650.621 1371.43 655.144C1378.85 664.735 1389.78 670.908 1400.05 676.965C1425.23 691.836 1451.14 705.425 1477.7 717.655C1481.02 719.189 1484.34 720.684 1487.68 722.179C1488.51 722.548 1489.25 721.305 1488.4 720.936C1461.86 709.094 1435.92 695.951 1410.71 681.508C1404.77 678.11 1398.84 674.674 1393.02 671.083C1387.9 667.918 1382.85 664.54 1378.38 660.483C1374.07 656.562 1370.31 651.941 1367.98 646.544C1365.55 640.914 1364.93 634.702 1365.71 628.645C1369.24 601.272 1395.16 586.324 1413.83 569.532C1431.61 553.554 1445.73 533.636 1455.36 511.777C1464.99 489.937 1470.17 466.097 1470.09 442.2C1470.09 439.229 1469.97 436.278 1469.82 433.328C1469.76 432.415 1468.32 432.396 1468.38 433.328L1468.4 433.347Z" fill="#685649" fill-opacity="0.05"/>
<path d="M1357.36 799.502C1328.72 778.923 1297.43 762.286 1269.78 740.272C1245.73 721.111 1220.94 696.766 1217.97 664.501C1216.57 649.417 1218.46 634.1 1215.76 619.113C1213.31 605.524 1206.36 592.944 1194.44 585.528C1182.27 577.976 1167.61 576.19 1155.25 568.929C1141.5 560.853 1129.72 549.089 1118.77 537.635C1095.57 513.349 1076.49 485.316 1062.31 454.876C1047.17 422.301 1037.41 387.609 1027.72 353.111C1009.74 289.086 989.941 223.023 947.173 170.607C909.123 123.976 852.611 90.9926 791.032 95.7683C755.719 98.5056 722.173 111.435 689.753 124.908C667.233 134.265 644.85 144.03 623.456 155.794C584.882 176.974 544.327 206.385 530.117 250.085C522.681 272.934 524.137 297.395 531.456 320.089C541.668 351.753 564.226 377.592 574.923 409.041C598.84 479.512 567.701 552.331 556.364 621.947C544.929 692.146 556.558 763.335 578.961 830.194C584.494 846.676 590.667 862.944 597.326 879.019C597.675 879.853 599.073 879.485 598.704 878.63C571.72 813.479 552.034 743.708 553.219 672.655C553.821 635.77 561.625 600.146 569.972 564.387C577.835 530.685 585.464 496.537 584.882 461.71C584.61 445.208 582.475 428.668 577.641 412.866C572.923 397.471 565.352 383.299 557.373 369.399C549.084 354.936 540.386 340.57 534.601 324.865C529.962 312.266 527.03 298.909 526.584 285.495C524.953 236.631 558.887 199.183 597.073 173.46C616.759 160.201 637.938 149.271 659.526 139.468C687.967 126.558 717.164 114.075 747.216 105.494C779.928 96.1566 814.056 93.2834 847.039 102.893C876.276 111.415 902.756 128.072 924.868 148.844C973.556 194.582 998.56 258.84 1017.14 321.565C1027.06 355.014 1035.43 388.948 1047.23 421.815C1058.45 453.071 1073.2 482.773 1093.06 509.466C1102.5 522.143 1112.89 534.102 1124.13 545.206C1134.57 555.515 1145.67 565.92 1158.86 572.599C1171.65 579.083 1186.77 580.694 1198.13 589.973C1210.9 600.398 1214.92 616.667 1215.64 632.45C1216.32 647.515 1214.73 662.968 1218.73 677.722C1222.36 691.117 1230.24 703.114 1239.19 713.559C1259.98 737.864 1287.37 755.841 1314.14 772.847C1328.43 781.932 1342.8 790.902 1356.56 800.802C1357.32 801.346 1358.04 800.103 1357.28 799.56L1357.36 799.502Z" fill="#685649" fill-opacity="0.05"/>
<path d="M-37.0634 171.908C-14.3304 138.303 13.4889 108.232 45.3073 83.0527C61.4398 70.2787 78.6594 57.7959 97.5098 49.3706C107.43 44.9249 118.069 41.7217 128.979 41.1781C139.598 40.654 149.926 42.9836 159.632 47.1769C177.473 54.8645 192.752 67.3473 210.359 75.5009C228.608 83.9457 248.274 88.7408 266.639 96.875C275.938 100.991 284.751 105.999 292.691 112.386C300.379 118.56 307.251 125.646 314.104 132.693C327.81 146.825 341.846 159.832 359.396 169.073C376.091 177.867 394.417 183.381 413.132 185.633C423.13 186.836 433.186 186.992 443.222 186.39C454.385 185.73 465.761 184.449 476.885 186.332C485.738 187.826 494.609 191.476 500.899 198.018C508.839 206.269 509.985 217.645 508.102 228.478C506.296 238.786 502.375 248.571 499.909 258.724C497.463 268.838 496.279 279.263 496.318 289.688C496.415 310.363 501.792 330.068 510.509 348.705C519.07 367.012 529.981 384.154 537.649 402.887C554.558 444.18 554.034 490.985 548.249 534.51C537.144 618.162 504.549 705.017 531.572 789.019C534.446 797.949 538.018 806.626 542.269 814.994C542.696 815.809 543.919 815.091 543.512 814.275C502.161 732.701 532.466 639.652 546.54 555.379C553.82 511.777 557.14 466.602 545.9 423.349C535.319 382.698 505.306 349.85 499.113 307.801C497.405 296.231 497.308 284.408 498.783 272.818C500.181 261.772 503.54 251.386 506.607 240.728C511.46 223.877 513.324 205.007 497.638 193.282C481.078 180.896 459.53 184.216 440.291 185.147C420.198 186.118 400.028 183.42 380.983 176.877C361.201 170.083 343.283 159.172 328.121 144.787C313.813 131.217 301.292 115.531 284.557 104.776C267.571 93.8659 247.924 88.372 229.113 81.5773C219.387 78.0635 209.855 74.1031 200.828 69.0557C192.344 64.3188 184.249 58.9219 175.881 54.0103C159.264 44.2843 141.695 37.6255 122.145 40.4598C101.742 43.4107 83.3187 54.2239 66.5649 65.6778C33.3487 88.372 3.62693 116.191 -21.2416 147.816C-27.2209 155.426 -32.909 163.23 -38.3253 171.247C-38.8494 172.024 -37.607 172.742 -37.0828 171.966L-37.0634 171.908Z" fill="#685649" fill-opacity="0.05"/>
<path d="M-86.0236 297.492C-45.7216 274.876 -8.56445 246.746 24.1082 214.073C40.0854 198.115 54.8783 181.051 68.623 163.152C80.9116 147.136 93.8215 129.412 112.361 120.21C122.301 115.259 133.483 113.726 144.374 115.939C156.099 118.307 166.796 124.19 176.794 130.557C187.646 137.488 198.149 144.962 208.787 152.222C220.086 159.929 231.384 167.637 242.683 175.344C263.358 189.457 283.742 204.308 305.64 216.481C315.91 222.188 326.607 227.235 337.75 231.002C347.34 234.244 357.28 236.146 367.064 238.709C375.917 241.019 385.002 243.853 392.515 249.25C400.397 254.899 405.6 263.655 405.619 273.497C405.658 284.175 400.222 294.328 393.136 302.016C385.429 310.383 375.237 315.721 364.89 320.128C346.428 327.971 326.315 333.271 311.911 348.064C301.389 358.858 295.487 372.913 292.42 387.493C285.78 418.962 290.343 451.809 282.383 483.084C277.84 500.925 268.367 516.475 254.098 528.22C238.16 541.343 218.319 549.186 198.323 553.554C173.377 559.009 147.635 559.009 122.243 560.077C109.274 560.621 96.3064 561.436 83.4353 563.261C70.6419 565.086 58.0233 567.978 45.5211 571.201C0.40451 582.83 -47.4882 599.583 -93.9831 584.713C-104.175 581.451 -113.765 576.598 -122.288 570.114C-123.025 569.551 -123.744 570.793 -123.006 571.356C-85.616 599.816 -35.0831 593.604 7.47096 582.83C32.8248 576.404 57.868 568.367 83.8236 564.659C110.73 560.815 138.006 561.572 165.068 559.534C205.72 556.447 252.584 544.469 274.598 506.593C291.061 478.25 288.207 443.306 290.634 411.817C291.876 395.84 294.225 379.417 301.602 364.993C309.853 348.879 323.792 338.493 340.177 331.505C360.619 322.788 384.206 317.061 398.106 298.269C403.872 290.484 407.851 280.719 406.978 270.896C406.201 262.315 401.678 254.628 394.98 249.289C380.052 237.389 359.299 236.224 341.671 230.749C318.026 223.43 296.788 210.229 276.384 196.524C253.865 181.401 231.54 165.967 209.117 150.669C198.129 143.176 187.297 135.391 176.017 128.325C166.253 122.209 155.769 116.657 144.354 114.444C134.454 112.522 124.32 113.512 115.021 117.414C105.877 121.258 97.9371 127.49 90.9289 134.42C83.7459 141.526 77.4172 149.466 71.2437 157.445C64.0608 166.724 56.8779 175.984 49.229 184.895C18.3424 220.887 -17.6305 252.473 -57.3113 278.428C-66.9015 284.699 -76.7052 290.639 -86.7031 296.25C-87.5185 296.696 -86.7808 297.939 -85.9848 297.492H-86.0236Z" fill="#685649" fill-opacity="0.05"/>
<path d="M-76.4916 233.098C-38.6162 223.023 -9.82625 195.32 15.6441 166.918C27.7968 153.368 39.5225 139.448 51.6752 125.898C63.2262 113.007 75.5536 100.311 90.4825 91.3228C105.916 82.0238 123.582 78.1217 141.384 81.6549C152.023 83.771 161.419 88.2749 170.291 94.4289C178.6 100.195 186.404 106.62 195.683 110.833C204.808 114.968 214.553 117.492 223.949 120.889C234.762 124.791 245.343 129.392 255.573 134.653C275.142 144.729 292.75 157.386 309.717 171.325C324.433 183.42 339.478 196.077 357.474 202.969C375.548 209.88 393.99 207.104 412.802 207.706C421.907 207.997 431.4 209.356 439.126 214.559C448.367 220.81 452.852 231.293 454.133 242.067C455.453 253.211 453.512 264.354 452.133 275.4C450.833 285.708 450.406 295.9 452.133 306.19C458.385 343.075 485.621 372.078 505.132 402.557C516.353 420.088 524.972 438.744 529.496 459.147C534.271 480.696 534.815 502.982 533.029 524.92C529.379 570.075 515.867 613.367 505.656 657.299C495.716 700.047 488.262 745.203 497.269 788.805C499.444 799.308 502.608 809.577 506.763 819.478C507.112 820.313 508.51 819.944 508.141 819.09C490.145 776.07 492.94 728.546 501.502 683.662C510.024 639.031 524.467 595.739 531.398 550.778C537.921 508.418 537.94 463.671 519.09 424.261C502.55 389.667 473.682 362.178 459.433 326.379C455.977 317.682 453.531 308.539 452.696 299.201C451.667 287.63 453.589 276.254 454.968 264.82C457.181 246.688 456.773 224.673 439.884 213.336C424.819 203.202 404.648 206.619 387.584 206.58C377.567 206.58 367.841 205.318 358.406 201.785C348.835 198.193 340.041 192.816 331.79 186.875C314.862 174.703 299.7 160.318 282.325 148.709C263.921 136.42 243.984 126.461 223.153 119.045C213.214 115.512 202.866 112.91 193.431 108.135C184.152 103.437 176.309 96.5062 167.631 90.8569C152.333 80.9367 133.638 76.6269 115.584 79.9466C81.8435 86.1588 58.4116 115.919 37.1734 140.303C11.5867 169.694 -14.1942 201.804 -49.0606 220.616C-57.8742 225.372 -67.1732 229.099 -76.8411 231.662C-77.7341 231.895 -77.3458 233.293 -76.4528 233.04L-76.4916 233.098Z" fill="#685649" fill-opacity="0.05"/>
<path d="M-78.3353 336.183C-42.2266 333.95 -12.8736 309.994 11.4319 285.223C25.9142 270.469 39.5812 254.919 53.5006 239.64C68.2159 223.489 82.6982 207.084 97.7436 191.243C110.362 177.964 125.466 164.608 144.569 163.016C165.127 161.308 184.191 172.684 199.489 185.264C214.689 197.766 228.337 212.365 245.634 222.091C262.776 231.72 281.996 236.69 300.807 241.951C317.91 246.746 337.032 251.25 349.67 264.722C355.106 270.527 358.659 278.137 356.912 286.194C355.378 293.279 350.408 298.463 344.312 302.035C331.383 309.645 315.872 311.392 303.078 319.352C288.887 328.185 278.851 342.337 272.192 357.46C255.749 394.85 261.262 437.171 248.294 475.454C242.8 491.645 234.006 507.37 220.63 518.358C205.837 530.491 187.278 533.558 168.641 532.704C149.402 531.811 130.319 527.657 110.983 528.589C101.296 529.054 91.9584 531.093 82.9118 534.626C73.9234 538.14 65.3621 542.644 56.5096 546.468C47.4825 550.37 38.2029 553.127 28.438 554.369C19.4302 555.515 10.3253 555.651 1.2399 555.573C-16.3292 555.437 -34.3447 554.292 -51.5644 558.543C-59.485 560.504 -66.998 563.727 -73.6956 568.405C-74.4527 568.929 -73.7344 570.172 -72.9773 569.648C-57.9125 559.126 -39.5281 557.048 -21.6096 556.854C-3.4193 556.641 14.9457 558.174 32.9807 555.165C42.4156 553.593 51.2875 550.409 59.9846 546.507C69.3419 542.314 78.4661 537.499 88.231 534.238C107.14 527.89 126.961 530.006 146.393 532.18C164.933 534.257 184.424 536.529 202.42 530.239C218.475 524.628 230.958 512.495 239.558 498.071C260.971 462.176 256.564 419.039 266.193 379.746C270.348 362.837 277.53 346.064 289.237 332.96C294.925 326.612 301.681 321.254 309.349 317.527C316.299 314.149 323.792 312.052 331.053 309.451C343.4 305.044 357.533 298.346 358.717 283.515C359.998 267.46 343.769 256.006 330.878 250.26C322.317 246.435 313.096 243.95 304.068 241.407C294.381 238.67 284.636 236.088 275.065 232.982C265.514 229.895 256.118 226.245 247.323 221.411C238.316 216.461 230.201 210.171 222.435 203.473C207.448 190.525 193.296 176.12 175.028 167.753C166.409 163.812 157.032 161.249 147.481 161.463C138.492 161.657 129.853 164.472 122.107 168.957C105.315 178.644 92.6961 194.563 79.8056 208.676C64.2944 225.702 48.7637 242.708 33.2525 259.733C8.69461 286.66 -17.3387 316.576 -52.5739 329.369C-60.8828 332.378 -69.5605 334.242 -78.3742 334.805C-79.2866 334.863 -79.306 336.299 -78.3742 336.241L-78.3353 336.183Z" fill="#685649" fill-opacity="0.05"/>
<path d="M-30.4621 358.508C-2.81747 344.647 22.7111 326.671 45.0752 305.316C56.3156 294.6 66.7405 283.029 76.2336 270.76C84.7367 259.772 92.7544 248.241 102.888 238.65C113.449 228.653 126.456 221.664 141.307 221.858C157.983 222.071 173.553 230.147 187.239 238.981C200.498 247.542 212.748 257.773 227.133 264.49C233.443 267.44 240.276 269.984 247.265 270.547C253.807 271.071 260.408 270.217 266.931 269.712C278.385 268.819 295.333 268.392 299.138 282.311C300.768 288.29 299.235 294.833 296.536 300.249C293.449 306.461 288.713 311.101 282.966 314.887C270.678 322.963 256.001 327.369 245.887 338.513C236.821 348.511 232.375 361.653 230.201 374.757C225.522 402.926 231.696 433.347 219.892 460.157C214.068 473.416 203.507 483.802 190.035 489.199C177.319 494.285 163.458 495.275 149.985 496.867C142.472 497.76 135.037 499.255 127.524 500.168C118.729 501.235 109.877 501.662 101.044 501.934C83.6107 502.478 66.0416 502.497 48.822 505.759C15.664 512.029 -13.3201 533.947 -47.7593 534.432C-55.8935 534.549 -63.9501 533.306 -71.5407 530.355C-72.3949 530.025 -72.7831 531.404 -71.9289 531.734C-38.9457 544.566 -5.43826 525.444 24.8854 514.184C33.039 511.155 41.3479 508.593 49.9091 507.02C58.8004 505.39 67.8471 504.613 76.8743 504.167C94.8704 503.274 112.964 503.681 130.843 501.177C138.24 500.148 145.559 498.809 152.975 497.954C159.808 497.158 166.68 496.46 173.456 495.237C186.928 492.81 199.877 487.898 209.642 477.978C230.88 456.41 228.434 423.873 229.599 396.015C230.201 381.727 231.793 366.914 237.733 353.752C240.587 347.443 244.489 341.619 249.517 336.863C255.205 331.485 262.194 327.777 269.105 324.224C275.764 320.808 282.52 317.43 288.383 312.732C293.139 308.927 296.789 303.782 299.04 298.133C301.156 292.814 302.088 286.66 300.263 281.107C298.516 275.769 294.304 271.906 289.14 269.906C283.238 267.615 276.637 267.673 270.406 268.042C263.592 268.431 256.778 269.421 249.925 269.246C234.549 268.858 220.242 259.869 207.934 251.483C194.325 242.203 181.202 232.147 165.826 225.877C151.46 220.014 135.619 218.208 121.078 224.479C108.46 229.934 98.6366 240.087 90.0559 250.551C80.524 262.199 71.9239 274.507 61.926 285.786C40.9402 309.431 16.3435 329.835 -10.7769 346.064C-17.4357 350.044 -24.2498 353.791 -31.1998 357.266C-32.0345 357.674 -31.2968 358.916 -30.4815 358.508H-30.4621Z" fill="#685649" fill-opacity="0.05"/>
<path d="M-64.3385 402.907C-43.0615 399.082 -22.3669 392.268 -2.89532 382.853C16.6151 373.398 34.8636 361.304 51.1514 346.977C59.305 339.813 66.9538 332.087 74.0203 323.856C81.6109 315.022 88.4638 305.549 96.831 297.434C104.965 289.533 114.691 283.126 126.009 281.049C131.445 280.04 137.114 280.137 142.413 281.767C146.937 283.146 150.994 285.689 154.722 288.562C161.71 293.94 167.728 300.676 175.377 305.18C178.775 307.18 182.521 308.616 186.501 308.868C191.083 309.16 195.412 307.645 199.527 305.762C203.934 303.743 208.244 301.103 213.02 300.055C217.504 299.065 222.358 300.443 224.842 304.559C227.114 308.325 226.803 313.139 225.949 317.274C224.92 322.225 222.843 326.748 220.727 331.31C209.351 355.79 197.974 380.271 186.618 404.751C183.783 410.827 180.968 416.923 178.134 422.999C175.785 428.027 173.397 433.056 170.582 437.831C167.806 442.568 164.603 447.072 160.662 450.916C156.624 454.876 151.848 457.905 146.665 460.157C135.541 464.99 123.155 466.738 111.352 469.145C98.1511 471.843 84.9694 474.542 71.7684 477.221C45.3856 482.618 18.9835 487.995 -7.39922 493.392C-13.8639 494.712 -20.3091 496.032 -26.7737 497.352C-27.6861 497.547 -27.2979 498.925 -26.3855 498.731C0.560249 493.217 27.506 487.723 54.4711 482.21C67.8469 479.473 81.2421 476.736 94.6178 474.018C107.392 471.416 120.282 469.126 132.959 466.058C143.967 463.399 154.644 459.244 162.662 450.955C170.408 442.918 175.222 432.648 179.881 422.65C191.413 397.82 202.944 372.991 214.476 348.161C217.388 341.91 220.28 335.659 223.192 329.408C225.172 325.156 226.881 320.769 227.638 316.129C228.279 312.188 228.317 307.859 226.357 304.248C224.435 300.715 220.669 298.482 216.689 298.288C212.107 298.055 207.681 300.23 203.682 302.19C199.139 304.403 194.461 306.966 189.336 307.393C180.386 308.131 172.931 302.229 166.564 296.716C159.73 290.795 153.013 284.058 144.355 280.874C134.221 277.166 122.922 279.185 113.41 283.728C102.985 288.698 94.6955 297.007 87.2602 305.665C79.7084 314.479 72.7002 323.681 64.6631 332.067C49.3071 348.083 31.6798 361.886 12.4995 373.03C-6.68092 384.173 -27.3755 392.676 -48.8855 398.112C-54.1077 399.432 -59.3881 400.558 -64.688 401.509C-65.6004 401.664 -65.2121 403.062 -64.2997 402.887L-64.3385 402.907Z" fill="#685649" fill-opacity="0.05"/>
<path d="M-65.8533 446.412C-48.6337 435.89 -31.4335 425.349 -14.2138 414.826C3.00578 404.304 20.206 393.763 37.4256 383.241C54.6452 372.719 71.8455 362.178 89.0651 351.655C97.2381 346.647 105.314 341.386 113.759 336.824C121.349 332.728 129.678 329.233 138.433 329.078C145.577 328.961 153.149 330.961 158.604 335.756C164.719 341.134 166.757 349.229 165.592 357.111C163.069 374.33 149.188 385.959 141.345 400.655C139.423 404.246 137.909 408.051 136.958 412.012C135.968 416.069 135.463 420.223 134.881 424.358C133.716 432.59 132.027 440.957 126.086 447.169C113.371 460.467 93.2972 458.914 76.5629 457.866C58.4697 456.721 40.3765 457.672 22.555 461.05C4.94712 464.389 -12.2531 469.941 -28.4632 477.609C-32.443 479.492 -36.345 481.492 -40.1889 483.608C-41.0042 484.054 -40.2665 485.297 -39.4706 484.85C-23.2993 475.94 -5.9826 469.203 11.9553 464.816C29.8738 460.428 48.3747 458.409 66.8174 458.856C84.5418 459.283 103.975 463.243 120.126 453.673C126.96 449.615 131.755 443.5 134.046 435.89C136.492 427.717 136.472 419.059 138.744 410.847C143.384 394.074 158.157 382.756 164.428 366.759C167.301 359.421 168.66 350.918 165.67 343.385C162.991 336.61 157.245 331.893 150.469 329.524C133.929 323.759 117.68 332.514 103.858 340.939C86.3472 351.617 68.8558 362.333 51.3644 373.049C33.873 383.746 16.3816 394.443 -1.09043 405.139C-18.6401 415.875 -36.2092 426.61 -53.7588 437.346C-58.0297 439.947 -62.3007 442.568 -66.5716 445.17C-67.3676 445.655 -66.6298 446.897 -65.8533 446.412Z" fill="#685649" fill-opacity="0.05"/>
<path d="M-43.2754 457.846C-26.2888 442.82 -8.21497 429.017 10.7324 416.554C20.1867 410.361 29.8352 404.479 39.7165 398.966C44.6475 396.209 49.6367 393.549 54.6648 390.967C59.324 388.579 64.0026 386.192 68.9918 384.503C77.5919 381.61 88.8517 380.601 94.7922 388.987C99.6649 395.859 98.3642 405.624 94.2292 412.516C89.1623 420.98 79.4362 425.484 70.4284 428.435C65.3033 430.105 60.0617 431.425 54.8395 432.764C48.8602 434.317 42.8421 435.812 36.8434 437.288C12.8097 443.15 -11.3988 448.353 -35.7237 452.896C-38.6939 453.439 -41.6447 453.983 -44.615 454.527C-45.5274 454.682 -45.1391 456.08 -44.2267 455.905C-19.0088 451.362 6.07323 446.121 30.9805 440.161C42.9197 437.307 54.9172 434.473 66.7205 431.056C76.2913 428.28 86.425 424.436 93.0644 416.612C98.306 410.419 100.83 401.295 98.5001 393.394C97.3353 389.453 94.8698 386.056 91.4142 383.823C87.4539 381.261 82.6394 380.562 77.9996 381.008C67.497 382.018 57.8874 387.589 48.7437 392.423C38.4353 397.878 28.3209 403.702 18.4395 409.895C-1.24559 422.242 -20.0377 436.026 -37.7232 451.11C-39.9364 452.993 -42.1106 454.895 -44.2849 456.817C-44.9838 457.439 -43.9549 458.448 -43.2754 457.827V457.846Z" fill="#685649" fill-opacity="0.05"/>
<path d="M-59.2523 622.355C-12.9321 616.842 33.3881 611.328 79.7083 605.834C102.868 603.078 126.048 600.321 149.208 597.564C169.922 595.099 190.694 592.517 211.04 587.78C246.935 579.413 281.956 563.3 304.806 533.345C315.076 519.872 322.142 504.05 324.161 487.161C326.782 465.029 321.365 443.073 321.482 420.961C321.579 402.907 325.481 383.163 339.206 370.312C351.126 359.169 367.608 355.247 381.256 346.841C387.565 342.958 393.137 338.027 396.922 331.582C400.805 325.02 403.115 316.809 409.094 311.722C416.821 305.141 426.489 309.121 431.944 316.459C438.059 324.71 438.311 334.319 437.224 344.162C436.098 354.276 433.982 364.527 436.506 374.602C438.506 382.581 442.932 389.628 448.096 395.937C453.687 402.752 460.171 408.77 466.364 415.001C473.197 421.874 479.429 429.231 484.787 437.327C495.425 453.42 502.686 471.708 506.044 490.713C509.714 511.447 508.025 532.277 503.249 552.681C498.357 573.589 490.805 593.759 484.806 614.357C478.866 634.76 474.692 655.668 472.343 676.79C467.626 719.131 470.169 762.267 479.875 803.753C482.244 813.907 485.078 823.924 488.301 833.844C488.592 834.718 489.97 834.349 489.679 833.456C476.206 792.047 470.149 748.348 471.702 704.823C472.498 682.847 475.216 660.949 479.895 639.458C484.496 618.278 491.562 597.875 497.949 577.2C504.123 557.165 509.403 536.548 509.558 515.446C509.694 496.46 505.831 477.493 498.493 460.001C491.154 442.51 480.399 427.096 467.063 413.681C454.541 401.082 438.991 387.881 436.952 369.05C435.768 358.256 438.894 347.618 439.224 336.863C439.476 328.631 437.438 320.75 432.099 314.343C427.731 309.082 420.975 305.335 414.025 307.413C406.842 309.567 403.057 316.382 399.931 322.671C396.223 330.146 392.438 336.843 385.721 342.046C379.373 346.977 371.957 350.335 364.677 353.675C357.241 357.072 349.709 360.45 343.07 365.303C336.488 370.098 331.266 376.369 327.655 383.668C309.193 420.864 331.266 463.108 319.696 501.643C308.999 537.266 277.375 562.776 243.926 576.151C224.182 584.033 203.274 588.537 182.308 591.779C160.021 595.215 137.541 597.525 115.157 600.204C68.468 605.757 21.7595 611.309 -24.9296 616.861C-36.364 618.22 -47.8179 619.579 -59.2523 620.938C-60.1648 621.054 -60.1648 622.491 -59.2523 622.375V622.355Z" fill="#685649" fill-opacity="0.05"/>
<path d="M434.797 820.914C422.606 782.748 419.946 741.689 427.09 702.26C430.643 682.633 436.894 663.822 444.523 645.418C452.192 626.936 460.85 608.863 467.683 590.032C479.467 557.553 485.796 519.154 469.469 487.005C462.248 472.814 450.697 461.651 439.651 450.45C428.585 439.248 417.306 427.27 412.355 411.973C408.317 399.47 408.259 381.261 394.262 375.087C387.817 372.253 380.285 373.204 374.092 376.252C366.851 379.844 361.784 386.522 358.561 393.782C351.106 410.633 351.223 430.493 351.728 448.547C352.291 468.757 354.174 489.257 350.563 509.311C344.292 544.061 319.831 572.171 290.75 590.769C257.301 612.163 217.95 622.51 180.036 632.877C159.73 638.429 139.152 643.38 118.146 645.399C98.3835 647.301 78.4655 646.563 58.6833 645.146C19.8372 642.351 -19.5913 636.507 -58.4179 642.875C-67.7946 644.408 -76.9965 646.699 -85.9655 649.805C-86.8391 650.097 -86.4508 651.494 -85.5772 651.184C-48.1483 638.235 -8.15681 640.992 30.631 644.292C50.3161 645.961 70.0207 647.806 89.7834 647.98C109.527 648.155 128.998 646.156 148.315 642.156C168.252 638.021 187.86 632.333 207.409 626.665C225.871 621.287 244.236 615.444 261.863 607.698C292.983 594.011 322.316 573.394 339.555 543.401C348.33 528.142 352.737 511.369 353.805 493.858C355.008 473.959 352.698 454.08 353.067 434.162C353.261 424.222 354.057 414.205 356.484 404.537C358.639 395.898 362.385 387.104 369.277 381.164C375.606 375.728 385.099 373.01 393.078 376.155C400.804 379.203 404.396 387.007 406.493 394.501C408.531 401.819 409.599 409.391 412.472 416.457C415.19 423.135 419.072 429.212 423.518 434.861C433.205 447.15 445.261 457.303 455.434 469.145C466.868 482.443 474.245 497.935 476.73 515.368C479.293 533.306 477.235 551.71 472.731 569.182C462.908 607.329 441.631 641.341 430.934 679.217C420.431 716.374 418.917 755.996 426.333 793.872C428.158 803.151 430.526 812.295 433.399 821.303C433.671 822.176 435.069 821.807 434.778 820.914H434.797Z" fill="#685649" fill-opacity="0.05"/>
<path d="M-49.41 670.034C-14.4078 675.917 21.0021 679.411 56.4703 680.421C91.8608 681.43 127.329 679.993 162.525 676.072C192.286 672.752 222.047 667.394 250.332 657.319C277.685 647.554 303.68 633.11 324.394 612.513C344.448 592.575 359.221 567.454 367.452 540.431C371.549 526.978 374.034 513 374.732 498.964C375.082 491.839 374.985 484.695 374.402 477.59C373.723 469.281 371.859 460.332 374.752 452.236C377.198 445.344 383.585 439.19 391.409 440.821C398.281 442.258 403.115 448.684 406.648 454.275C410.977 461.108 414.782 468.349 418.568 475.493C422.586 483.084 426.411 490.791 429.692 498.712C435.962 513.854 440.485 530.045 440.214 546.546C439.942 563.591 433.73 579.18 426.663 594.439C419.868 609.096 413.443 623.695 409.055 639.303C404.687 654.834 401.892 670.791 400.242 686.827C396.864 719.597 398.184 752.658 400.436 785.466C400.999 793.523 401.6 801.579 402.241 809.616C402.319 810.529 403.755 810.548 403.678 809.616C401.096 776.342 398.63 742.912 400.047 709.521C401.465 676.324 406.92 643.03 420.043 612.338C426.43 597.429 434.487 583.101 438.719 567.338C442.912 551.749 442.271 535.539 438.369 519.95C434.351 503.953 427.323 488.85 419.597 474.348C415.869 467.34 412.123 460.234 407.871 453.517C404.59 448.334 400.474 442.879 394.709 440.355C389.545 438.103 383.798 439.016 379.508 442.627C374.325 446.995 372.17 453.712 371.859 460.293C371.471 468.466 373.102 476.639 373.393 484.812C373.645 491.936 373.432 499.081 372.772 506.166C370.034 535.345 359.629 563.746 343.03 587.897C326.024 612.61 302.534 631.712 275.763 645.011C248.371 658.619 218.377 666.326 188.287 671.16C154.391 676.596 119.874 678.926 85.5515 679.256C49.4815 679.605 13.3921 677.411 -22.3478 672.675C-31.2585 671.49 -40.1498 670.151 -49.0217 668.656C-49.9342 668.501 -50.3224 669.879 -49.41 670.034Z" fill="#685649" fill-opacity="0.05"/>
<path d="M1327.27 817.401C1300.15 812.586 1274.81 800.181 1253.83 782.418C1243.48 773.662 1234.18 763.665 1226.24 752.715C1217.62 740.815 1209.89 727.653 1206.05 713.403C1201.99 698.358 1201.78 682.653 1198.48 667.452C1195.35 653.028 1189.06 639.691 1180.5 627.713C1163.75 604.281 1140.26 587.663 1116.52 571.997C1091.96 555.806 1066.41 539.887 1047.54 516.882C1027.51 492.48 1016.71 462.156 1007.82 432.279C989.709 371.399 977.381 308.189 949.057 250.861C925.586 203.318 888.585 159.366 839.197 137.682C814.134 126.674 786.839 122.578 759.661 125.975C730.191 129.664 702.333 141.215 676.397 155.29C662.536 162.803 649.121 171.092 635.881 179.634C623.67 187.535 611.362 195.417 599.695 204.095C578.825 219.606 559.684 239.388 556.384 266.334C552.656 296.755 567.643 325.758 582.96 350.898C599.714 378.349 617.477 405.256 620.389 438.181C623.418 472.329 614.798 506.865 608.877 540.275C602.646 575.375 596.395 610.474 590.163 645.573C584.378 678.129 576.476 711.773 582.32 744.892C587.484 774.128 602.16 800.608 618.875 824.739C627.106 836.62 635.92 848.074 644.792 859.489C645.355 860.227 646.364 859.198 645.801 858.479C627.242 834.582 608.567 810.218 595.89 782.573C589.697 769.081 585.077 754.793 582.999 740.058C580.495 722.392 581.932 704.454 584.533 686.866C589.6 652.543 596.453 618.414 602.529 584.266C608.508 550.603 615.536 516.921 620.079 483.025C622.253 466.757 623.379 450.217 621.418 433.89C619.652 419.33 615.128 405.469 608.741 392.307C595.21 364.449 575.02 340.182 564.265 310.926C558.869 296.23 555.724 280.234 558.092 264.587C560.247 250.298 567.139 237.466 576.593 226.692C585.737 216.267 596.802 207.706 608.159 199.804C620.079 191.495 632.309 183.555 644.578 175.79C694.956 143.913 753.662 115.065 814.678 130.693C867.016 144.088 908.969 184.681 936.128 229.992C968.645 284.272 982.642 347.152 999.28 407.488C1007.24 436.317 1015.28 465.728 1029.51 492.227C1043.23 517.775 1063.38 537.189 1086.85 553.826C1110.77 570.774 1136.86 585.062 1158.47 605.097C1169.17 615.017 1178.79 626.257 1186.04 638.973C1193.98 652.912 1197.64 667.899 1199.68 683.701C1201.61 698.591 1203.22 713.539 1209.55 727.381C1214.96 739.223 1222.2 750.328 1230.36 760.442C1246.61 780.593 1267.53 797.114 1291.16 807.752C1302.57 812.897 1314.57 816.605 1326.9 818.799C1327.81 818.954 1328.2 817.575 1327.29 817.42L1327.27 817.401Z" fill="#685649" fill-opacity="0.05"/>
<path d="M1284.62 843.803C1231.89 834.717 1186.4 795.464 1167.67 745.591C1162.68 732.312 1159.88 718.529 1158.78 704.396C1157.52 688.302 1157.56 671.859 1152.49 656.328C1143.95 630.062 1123.29 610.241 1101.8 593.992C1077.65 575.744 1051.36 560.523 1027.72 541.557C1004.52 522.939 984.835 500.983 971.731 474.115C947.581 424.553 944.339 368.137 933.331 314.906C927.954 288.873 920.752 262.917 908.366 239.233C896.621 216.772 880.236 197.319 859.386 182.818C818.987 154.746 765.445 145.428 718.135 159.328C690.606 167.423 667.097 183.963 646.208 203.26C634.599 213.976 623.669 225.411 612.837 236.903C603.285 247.018 593.482 258.316 591.366 272.566C589.114 287.591 595.093 302.656 601.577 315.896C608.216 329.466 616.525 342.143 624.698 354.839C632.638 367.167 640.559 379.572 646.752 392.889C653.915 408.304 657.973 424.727 658.943 441.694C660.923 476.386 651.799 510.573 643.782 544.003C635.57 578.248 627.455 612.648 623.786 647.728C617.768 705.153 625.203 767.237 661.351 814.314C669.271 824.623 678.473 833.844 688.801 841.745C689.539 842.308 690.257 841.066 689.519 840.503C643.743 805.481 624.349 746.037 623.262 690.205C622.582 655.125 628.154 620.317 635.511 586.13C642.772 552.37 652.731 519.037 657.876 484.87C662.632 453.284 661.622 421.524 647.975 392.171C635.57 365.439 616.409 342.551 603.305 316.187C596.122 301.724 589.288 284.679 593.695 268.372C597.694 253.521 609.633 242.3 619.923 231.545C641.627 208.851 664.263 185.943 692.393 171.228C737.373 147.699 793.303 149.718 838.323 172.043C860.978 183.284 880.838 199.804 895.359 220.557C910.851 242.688 920.441 268.198 927.119 294.211C940.456 346.297 942.747 401.004 960.898 451.886C970.003 477.434 983.495 500.828 1002.31 520.474C1023.16 542.236 1048.41 559.126 1073.3 575.86C1096.75 591.624 1121.19 607.892 1137.91 631.169C1146.49 643.108 1152.14 656.542 1154.47 671.063C1157.03 687.079 1156.39 703.444 1159.09 719.46C1167.51 769.566 1203.23 813.77 1249.36 834.504C1260.48 839.513 1272.19 843.123 1284.23 845.181C1285.14 845.337 1285.53 843.958 1284.62 843.803Z" fill="#685649" fill-opacity="0.05"/>
<path d="M706.254 818.837C667.932 789.407 644.015 742.795 640.948 694.689C639.297 668.85 644.558 643.904 653.158 619.657C662.36 593.74 674.397 568.833 681.929 542.314C689.986 513.893 691.073 484.268 692.276 454.934C693.364 428.28 693.81 401.004 687.132 374.971C683.929 362.546 678.998 350.704 672.184 339.813C665.35 328.903 657.177 318.789 651.392 307.238C645.451 295.357 643.199 282.408 645.587 269.285C647.878 256.569 653.877 244.552 662.244 234.748C679.153 214.927 704.72 204.075 729.744 198.873C751.623 194.33 774.589 194.369 796.39 199.261C817.415 203.998 837.682 213.452 853.388 228.42C871.636 245.795 880.799 269.071 885.633 293.396C890.933 319.992 892.273 347.21 899.3 373.496C906.794 401.47 918.616 428.066 930.148 454.546C940.767 478.91 952.085 503.429 968.975 524.182C983.088 541.499 1001.06 554.913 1019.6 567.144C1056.2 591.235 1099.02 613.017 1117.51 655.261C1137.77 701.561 1126.98 757.744 1158 800.065C1164.2 808.509 1171.92 815.673 1181.07 820.837C1181.88 821.283 1182.6 820.06 1181.78 819.595C1160.6 807.636 1148.68 785.408 1141.99 762.791C1134.43 737.282 1133.5 710.472 1128.01 684.536C1125.21 671.335 1121.19 658.289 1114.75 646.369C1109.68 637.012 1103.22 628.47 1095.88 620.783C1080.78 604.961 1062.35 592.789 1044.01 581.082C1024.9 568.891 1005.34 557.087 988.271 542.062C968.237 524.434 954.046 502.148 942.495 478.308C936.477 465.884 931.06 453.187 925.605 440.53C919.49 426.319 913.472 412.07 908.288 397.49C903.416 383.765 899.32 369.768 896.582 355.461C894.039 342.162 892.486 328.709 890.622 315.294C887.07 289.824 882.119 263.538 867.035 242.087C854.98 224.964 837.605 212.404 818.288 204.6C776.763 187.807 725.163 190.971 686.278 213.355C664.884 225.663 647.567 245.853 643.821 270.838C642.015 282.874 643.898 294.716 649.004 305.724C654.44 317.43 662.535 327.622 669.505 338.416C684.802 362.1 690.199 389.414 691.189 417.253C691.675 431.075 691.228 444.898 690.626 458.701C689.966 473.94 689.345 489.218 687.656 504.4C686.006 519.29 683.094 533.927 678.629 548.235C674.397 561.805 669.097 575.025 663.797 588.207C653.663 613.328 643.277 638.798 640.171 665.938C634.832 712.608 650.324 761.024 680.745 796.648C688.141 805.326 696.45 813.169 705.477 820.099C706.215 820.662 706.933 819.42 706.196 818.857L706.254 818.837Z" fill="#685649" fill-opacity="0.05"/>
<path d="M724.211 809.13C692.703 778.671 674.687 735.069 675.58 691.253C676.59 641.593 701.866 596.671 714.019 549.419C726.56 500.672 729.277 449.479 722.328 399.645C720.561 387.046 718.193 374.544 715.203 362.177C712.543 351.209 709.088 341.056 703.477 331.232C692.373 311.78 676.959 292.891 678.725 269.09C680.395 246.629 699.42 232.787 719.746 227.565C740.595 222.207 763.484 224.576 783.538 231.953C804.388 239.621 823.529 253.366 835.973 271.925C847.233 288.717 852.261 308.422 857.367 327.719C863.773 352.044 870.859 376.194 878.76 400.092C886.331 422.98 894.407 445.829 904.308 467.844C922.324 507.855 947.173 545.73 982.156 572.89C1000.05 586.77 1019.9 597.797 1038.49 610.649C1056.76 623.267 1073.09 637.944 1085.55 656.445C1109.16 691.505 1118.36 734.428 1120.34 776.108C1120.83 786.281 1120.86 796.473 1120.57 806.646C1120.55 807.577 1121.99 807.577 1122.01 806.646C1123.27 764.674 1118.71 721.266 1101.53 682.536C1093.2 663.744 1081.73 646.311 1067.05 631.867C1050.45 615.521 1030.34 603.446 1010.85 590.963C991.299 578.442 972.798 564.93 957.015 547.788C941.524 530.976 928.614 511.912 917.742 491.839C906.366 470.834 897.416 448.703 889.302 426.261C880.391 401.625 872.509 376.601 865.346 351.403C859.463 330.689 855.27 309.082 846.845 289.203C838.691 269.945 825.276 254.026 807.785 242.552C789.692 230.691 768.24 223.954 746.594 223.372C727.259 222.848 706.156 227.099 691.402 240.397C684.122 246.959 679.211 255.637 677.696 265.344C675.968 276.448 678.395 287.747 682.783 297.977C687.054 307.936 693.091 316.925 698.74 326.127C704.875 336.125 709.651 346.278 712.582 357.673C725.667 408.711 728.152 462.447 719.804 514.475C715.727 539.945 708.758 564.6 700.158 588.867C691.79 612.473 682.608 635.964 677.657 660.599C673.27 682.478 672.901 704.803 677.444 726.701C681.89 748.095 690.664 768.615 703.108 786.572C709.01 795.075 715.727 802.957 723.162 810.159C723.822 810.8 724.851 809.79 724.172 809.15L724.211 809.13Z" fill="#685649" fill-opacity="0.05"/>
<path d="M1083.13 805.209C1089.78 763.723 1079.38 721.285 1059.5 684.73C1039.27 647.534 1009.37 616.531 977.012 589.682C960.918 576.345 943.601 564.561 927.547 551.205C919.471 544.488 911.764 537.189 905.357 528.841C898.601 520.047 893.632 510.146 889.768 499.779C882.081 479.123 877.713 457.361 870.53 436.511C862.881 414.263 853.737 392.579 844.574 370.952C829.645 335.756 813.862 298.036 783.422 273.245C768.998 261.519 749.468 251.211 730.443 256.938C722.717 259.248 715.495 264.121 711.243 271.071C706.099 279.457 706.662 289.436 709.418 298.54C712.738 309.509 718.116 319.914 722.484 330.475C726.89 341.094 731.064 351.83 734.889 362.682C742.518 384.367 748.73 406.653 751.992 429.444C755.312 452.721 755.253 476.269 751.196 499.43C747.216 522.143 740.033 544.138 732.19 565.784C716.543 608.921 697.615 652.193 695.421 698.669C693.732 734.642 703.886 773.061 730.132 798.9C736.209 804.879 743.081 809.985 750.555 814.062C751.371 814.508 752.089 813.266 751.274 812.819C719.086 795.289 701.556 759.452 697.576 724.081C692.548 679.566 707.729 635.575 723.047 594.497C738.616 552.719 755.37 510.359 755.855 465.126C756.34 420.611 742.965 377.261 726.444 336.377C722.231 325.971 717.514 315.779 713.359 305.354C709.321 295.201 706.215 283.379 711.709 273.148C716.097 264.955 724.638 259.597 733.549 257.617C744.013 255.307 754.982 257.986 764.455 262.587C799.555 279.612 819.434 317.352 834.576 351.364C843.584 371.612 852.203 392.093 860.241 412.73C868.472 433.832 875.092 455.264 881.149 477.085C886.526 496.479 892.933 515.737 905.726 531.617C918.325 547.283 934.943 559.009 950.901 570.987C984.311 596.05 1016.21 624.005 1040.84 657.978C1065.34 691.757 1082.31 732.079 1083.67 774.167C1084 784.437 1083.38 794.706 1081.75 804.84C1081.61 805.753 1082.99 806.141 1083.13 805.228V805.209Z" fill="#685649" fill-opacity="0.05"/>
<path d="M1053.6 826.37C1051.79 788.164 1042.26 750.502 1025.97 715.908C1017.8 698.552 1007.94 681.993 996.522 666.579C984.641 650.524 970.954 636.138 956.472 622.433C941.232 608.009 925.469 594.05 911.918 577.976C900.212 564.096 890.253 548.817 881.595 532.879C864.123 500.75 851.756 466.214 838.614 432.182C825.781 398.966 812.134 365.672 792.352 335.892C787.401 328.457 782.101 321.235 776.374 314.382C770.997 307.956 764.26 301.045 755.505 299.938C748.982 299.123 741.392 301.647 738.538 307.995C736.791 311.878 737.276 316.265 738.402 320.264C739.858 325.331 742.09 330.223 743.954 335.135C758.999 374.816 770.725 416.147 775.035 458.468C779.248 500.032 775.792 542.469 760.747 581.684C753.175 601.427 743.275 620.2 735.936 640.041C729.472 657.513 725.667 675.645 725.531 694.301C725.298 729.187 736.849 764.189 758.068 791.892C763.173 798.55 768.823 804.782 774.977 810.49C775.656 811.111 776.666 810.101 775.986 809.48C750.186 785.524 733.646 752.56 728.579 717.83C726.036 700.455 726.404 682.575 729.977 665.356C734.131 645.282 742.731 626.548 751.098 607.931C759.446 589.352 767.095 570.638 771.676 550.72C776.122 531.345 778.141 511.466 778.16 491.606C778.199 450.508 769.968 409.74 757.776 370.642C754.709 360.799 751.37 351.054 747.817 341.386C746.031 336.513 744.168 331.66 742.285 326.806C740.401 322.011 738.072 316.653 738.984 311.392C740.693 301.511 752.787 299.375 760.669 302.87C769.25 306.675 775.326 315.042 780.898 322.283C802.66 350.549 817.647 383.26 830.829 416.205C843.913 448.936 855.387 482.346 870.529 514.223C878.061 530.064 886.506 545.498 896.446 559.961C907.259 575.685 919.975 589.702 933.7 602.922C948.415 617.094 963.849 630.547 977.594 645.709C990.445 659.881 1001.82 675.353 1011.57 691.777C1030.9 724.333 1043.89 760.656 1049.44 798.123C1050.82 807.48 1051.71 816.896 1052.18 826.331C1052.22 827.243 1053.66 827.263 1053.62 826.331L1053.6 826.37Z" fill="#685649" fill-opacity="0.05"/>
<path d="M808.796 802.414C789.343 777.603 770.668 748.483 767.503 716.354C764.126 682.148 778.996 649.087 790.489 617.754C796.429 601.563 801.652 585.14 804.369 568.075C807.01 551.516 807.611 534.684 806.699 517.931C804.835 483.802 796.953 450.295 787.557 417.525C785.228 409.391 782.626 401.334 780.316 393.2C779.481 390.288 778.453 385.57 781.365 383.454C785.228 380.659 789.79 385.124 792.353 387.725C802.253 397.82 809.592 410.031 815.28 422.922C820.987 435.832 825.122 449.343 829.218 462.816C833.334 476.328 837.178 490.189 843.313 502.982C846.943 510.573 851.311 517.853 854.436 525.677C857.445 533.209 859.329 541.11 861.503 548.914C865.793 564.212 870.511 579.568 876.742 594.206C882.819 608.474 890.778 621.617 900.892 633.382C910.56 644.603 921.645 654.523 932.847 664.191C944.126 673.936 955.58 683.488 966.121 694.048C976.915 704.881 986.544 716.82 995.008 729.555C1011.86 754.948 1024.01 783.233 1032.75 812.353C1034.88 819.458 1036.81 826.622 1038.55 833.824C1038.77 834.717 1040.16 834.349 1039.93 833.436C1032.67 803.481 1022.25 774.128 1007.32 747.086C999.92 733.69 991.397 720.916 981.691 709.094C972.003 697.29 961.016 686.768 949.562 676.712C926.596 656.581 901.747 637.458 886.371 610.474C878.043 595.875 872.471 579.937 867.521 563.94C862.668 548.254 859.426 531.831 852.087 517.057C848.282 509.389 844.031 501.934 840.964 493.916C838.42 487.277 836.207 480.521 834.091 473.746C829.82 460.098 825.938 446.315 820.91 432.92C815.998 419.893 809.922 407.178 801.457 396.054C799.38 393.336 797.186 390.715 794.837 388.211C792.508 385.726 790.003 382.989 786.742 381.727C784.354 380.795 781.656 380.931 779.812 382.872C778.045 384.716 777.89 387.473 778.161 389.88C778.569 393.413 779.928 396.85 780.957 400.228C782.238 404.46 783.5 408.692 784.742 412.943C787.227 421.466 789.615 430.027 791.848 438.627C796.235 455.653 800.001 472.853 802.486 490.247C807.514 525.288 806.893 560.931 796.662 595.002C786.664 628.295 769.95 659.842 766.3 694.825C764.611 711.016 766.572 726.799 771.969 742.155C777.365 757.491 785.383 771.818 794.488 785.252C798.681 791.445 803.146 797.463 807.747 803.345C808.31 804.064 809.32 803.054 808.757 802.336L808.796 802.414Z" fill="#685649" fill-opacity="0.05"/>
</g>
</svg>
