<svg width="18" height="22" viewBox="0 0 18 22" fill="none" xmlns="http://www.w3.org/2000/svg">
<path fill-rule="evenodd" clip-rule="evenodd" d="M4.80001 2.40002C3.36408 2.40002 2.20001 3.56409 2.20001 5.00002V17C2.20001 18.4359 3.36408 19.6 4.80001 19.6H7.20001C7.7523 19.6 8.20001 20.0477 8.20001 20.6C8.20001 21.1523 7.7523 21.6 7.20001 21.6H4.80001C2.2595 21.6 0.200012 19.5405 0.200012 17V5.00002C0.200012 2.45952 2.25951 0.400024 4.80001 0.400024H13.2C15.7405 0.400024 17.8 2.45952 17.8 5.00002V8.00002C17.8 8.55231 17.3523 9.00002 16.8 9.00002C16.2477 9.00002 15.8 8.55231 15.8 8.00002V5.00002C15.8 3.56409 14.6359 2.40002 13.2 2.40002H4.80001ZM12.6372 13.8994C12.6372 13.8995 12.6372 13.8994 12.6372 13.8994L11.8 14.318V17.045C11.8 17.104 11.8445 17.3464 12.2924 17.8073C12.6351 18.1597 13.1355 18.5594 13.805 19.01C14.4954 18.5619 14.9896 18.2079 15.3294 17.8793C15.7243 17.4972 15.8 17.2562 15.8 17.045V14.318L14.9628 13.8994C14.9628 13.8994 14.9628 13.8995 14.9628 13.8994C14.2309 13.5335 13.3692 13.5335 12.6372 13.8994ZM11.7428 12.1106C13.0378 11.4631 14.5622 11.4631 15.8572 12.1106L17.2472 12.8056C17.586 12.975 17.8 13.3212 17.8 13.7V17.045C17.8 17.9888 17.3418 18.7151 16.7199 19.3168C16.1252 19.892 15.2863 20.4441 14.334 21.0455C14.0078 21.2515 13.5922 21.2515 13.266 21.0455C12.2746 20.4194 11.4477 19.8076 10.8583 19.2013C10.2894 18.616 9.8 17.891 9.8 17.045V13.7C9.8 13.3212 10.014 12.975 10.3528 12.8056L11.7428 12.1106Z" fill="#EEC76F"/>
</svg>
