<svg width="22" height="22" viewBox="0 0 22 22" fill="none" xmlns="http://www.w3.org/2000/svg">
<path fill-rule="evenodd" clip-rule="evenodd" d="M11 2.40002C9.78497 2.40002 8.79999 3.385 8.79999 4.60002C8.79999 5.81506 9.78496 6.80002 11 6.80002C12.215 6.80002 13.2 5.81506 13.2 4.60002C13.2 3.385 12.215 2.40002 11 2.40002ZM6.79999 4.60002C6.79999 2.28043 8.6804 0.400024 11 0.400024C13.3196 0.400024 15.2 2.28043 15.2 4.60002C15.2 6.57503 13.8368 8.23162 12 8.68025V16.6C12 17.1523 11.5523 17.6 11 17.6C10.4477 17.6 10 17.1523 10 16.6V8.68025C8.16319 8.23163 6.79999 6.57503 6.79999 4.60002ZM8.38607 12.7245C8.47792 13.2691 8.1109 13.785 7.56631 13.8769C5.88537 14.1604 4.51739 14.6364 3.5994 15.1934C2.64056 15.7751 2.39999 16.2915 2.39999 16.6C2.39999 16.804 2.49496 17.0888 2.8562 17.4446C3.22096 17.804 3.80008 18.1736 4.59638 18.5054C6.18462 19.1671 8.44806 19.6 11 19.6C13.5519 19.6 15.8154 19.1671 17.4036 18.5054C18.1999 18.1736 18.779 17.804 19.1438 17.4446C19.505 17.0888 19.6 16.804 19.6 16.6C19.6 16.2915 19.3594 15.7751 18.4006 15.1934C17.4826 14.6364 16.1146 14.1604 14.4337 13.8769C13.8891 13.785 13.5221 13.2691 13.6139 12.7245C13.7058 12.1799 14.2217 11.8129 14.7663 11.9047C16.6036 12.2146 18.2356 12.7539 19.4381 13.4835C20.5997 14.1883 21.6 15.2298 21.6 16.6C21.6 17.5007 21.1577 18.2682 20.5474 18.8694C19.9406 19.4672 19.1138 19.9595 18.1728 20.3515C16.2865 21.1375 13.75 21.6 11 21.6C8.25001 21.6 5.71344 21.1375 3.82716 20.3515C2.8862 19.9595 2.05944 19.4672 1.45263 18.8694C0.842289 18.2681 0.399994 17.5007 0.399994 16.6C0.399994 15.2298 1.40033 14.1883 2.56194 13.4835C3.76441 12.7539 5.39642 12.2146 7.23368 11.9047C7.77827 11.8129 8.29421 12.1799 8.38607 12.7245Z" fill="#EEC76F"/>
</svg>
