<svg width="22" height="18" viewBox="0 0 22 18" fill="none" xmlns="http://www.w3.org/2000/svg">
<path fill-rule="evenodd" clip-rule="evenodd" d="M2.40244 4.22083C2.40082 4.24844 2.39999 4.27627 2.39999 4.3043V13.6956C2.39999 13.7546 2.40364 13.8127 2.41072 13.8697L7.28643 8.90371C7.47758 8.70902 7.72881 8.6091 7.98162 8.60447L2.40244 4.22083ZM3.96404 2.9043L11.0209 8.44893L18.5288 2.94312C18.4233 2.91774 18.3132 2.9043 18.2 2.9043H3.96404ZM19.6 4.6377L14.2707 8.54586L19.6 13.4311V4.6377ZM18.4347 15.076L12.7243 9.84145C12.6915 9.81142 12.6612 9.7797 12.6334 9.74656L11.5914 10.5107C11.2295 10.7761 10.7351 10.7679 10.3822 10.4906L8.97593 9.38571C9.04723 9.70545 8.96016 10.0537 8.71356 10.3049L4.00995 15.0956H18.2C18.28 15.0956 18.3584 15.0889 18.4347 15.076ZM0.399994 4.3043C0.399994 2.42653 1.92223 0.904297 3.79999 0.904297H18.2C20.0778 0.904297 21.6 2.42652 21.6 4.3043V13.6956C21.6 15.5734 20.0778 17.0956 18.2 17.0956H3.79999C1.92223 17.0956 0.399994 15.5734 0.399994 13.6956V4.3043Z" fill="#EEC76F"/>
</svg>
