<svg width="20" height="20" viewBox="0 0 20 20" fill="none" xmlns="http://www.w3.org/2000/svg">
<path d="M18.6634 16.771C18.6634 16.771 17.5047 17.909 17.2208 18.2426C16.7582 18.7362 16.2132 18.9693 15.4988 18.9693C15.4301 18.9693 15.3568 18.9693 15.2881 18.9647C13.928 18.8779 12.664 18.3477 11.716 17.8953C9.12385 16.643 6.84774 14.8651 4.95632 12.6119C3.39464 10.7335 2.35047 8.9968 1.65894 7.13211C1.23303 5.99409 1.07732 5.10744 1.14601 4.27107C1.19181 3.73634 1.3979 3.29302 1.77801 2.91368L3.33969 1.35519C3.56409 1.14496 3.80224 1.0307 4.0358 1.0307C4.32432 1.0307 4.55789 1.20437 4.70444 1.35062C4.70902 1.35519 4.7136 1.35977 4.71818 1.36434C4.99754 1.62485 5.26316 1.8945 5.54252 2.18243C5.68449 2.32868 5.83104 2.47493 5.97759 2.62575L7.22785 3.87345C7.7133 4.35791 7.7133 4.8058 7.22785 5.29026C7.09504 5.4228 6.96681 5.55534 6.834 5.68331C6.4493 6.07636 6.7515 5.77477 6.35307 6.13126C6.34391 6.1404 6.33475 6.14497 6.33017 6.15411C5.93632 6.54716 6.00959 6.93107 6.09203 7.19158C6.09661 7.20529 6.10119 7.219 6.10577 7.23271C6.43092 8.01881 6.88889 8.7592 7.58501 9.64128L7.58959 9.64585C8.85358 11.1998 10.1863 12.4109 11.6564 13.3387C11.8441 13.4575 12.0365 13.5535 12.2197 13.6449C12.3845 13.7272 12.5402 13.8049 12.6731 13.8871C12.6914 13.8963 12.7097 13.91 12.728 13.9191C12.8837 13.9968 13.0303 14.0334 13.1814 14.0334C13.5615 14.0334 13.7997 13.7957 13.8775 13.718L14.7752 12.8222C14.9309 12.6668 15.1782 12.4794 15.4667 12.4794C15.7507 12.4794 15.9842 12.6576 16.1262 12.813C16.1308 12.8176 16.1308 12.8176 16.1354 12.8222L18.6588 15.3404C19.1305 15.8066 18.6634 16.771 18.6634 16.771Z" stroke="#EEC76F" stroke-width="2" stroke-linecap="round" stroke-linejoin="round"/>
</svg>
